<?xml version="1.0" encoding="UTF-8"?>
<!DOCTYPE svg PUBLIC "-//W3C//DTD SVG 1.1//EN" "http://www.w3.org/Graphics/SVG/1.1/DTD/svg11.dtd">
<!-- Creator: CorelDRAW X7 -->
<svg xmlns="http://www.w3.org/2000/svg" xml:space="preserve" width="1170px" height="313px" version="1.1" style="shape-rendering:geometricPrecision; text-rendering:geometricPrecision; image-rendering:optimizeQuality; fill-rule:evenodd; clip-rule:evenodd"
viewBox="0 0 2005 536"
 xmlns:xlink="http://www.w3.org/1999/xlink">
 <defs>
  <style type="text/css">
   <![CDATA[
    .str0 {stroke:#ADBF44;stroke-width:1.54192}
    .fil0 {fill:none}
    .fil26 {fill:#FEFEFE}
    .fil28 {fill:#FEFEFE}
    .fil48 {fill:#373435}
    .fil42 {fill:#F79635}
    .fil43 {fill:#F16138}
    .fil27 {fill:#F7D532}
    .fil38 {fill:#EC895F}
    .fil47 {fill:#D3DA83}
    .fil25 {fill:#BECB56}
    .fil45 {fill:#ADBF44}
    .fil46 {fill:#ADBF44}
    .fil39 {fill:#8FC74B}
    .fil44 {fill:#315881}
    .fil5 {fill:black}
    .fil18 {fill:#1C5A8C}
    .fil9 {fill:#3A6D97}
    .fil1 {fill:#437FB1}
    .fil33 {fill:#4C8EB4}
    .fil7 {fill:#4D4D4D}
    .fil15 {fill:#5896CC}
    .fil12 {fill:#694F28}
    .fil21 {fill:#7BA1C1}
    .fil37 {fill:#7FB4E3}
    .fil10 {fill:gray}
    .fil11 {fill:#886734}
    .fil14 {fill:#91BDE3}
    .fil34 {fill:#92C0E9}
    .fil22 {fill:#999999}
    .fil17 {fill:#9DB8CC}
    .fil35 {fill:#A5CCF0}
    .fil8 {fill:#AEAEAE}
    .fil3 {fill:#B3B3B3}
    .fil36 {fill:#B7D8F6}
    .fil13 {fill:#BD9D6E}
    .fil23 {fill:#CAE4FC}
    .fil4 {fill:#CCCCCC}
    .fil19 {fill:#CF8C0B}
    .fil32 {fill:#D6431A}
    .fil20 {fill:#D9D9D9}
    .fil31 {fill:#E66C4A}
    .fil6 {fill:#E6E6E6}
    .fil30 {fill:#ED7B5C}
    .fil16 {fill:#F3A50D}
    .fil29 {fill:#FCA58D}
    .fil24 {fill:#FFD47F}
    .fil2 {fill:white}
    .fil40 {fill:#FEFEFE;fill-rule:nonzero}
    .fil41 {fill:#FEFEFE;fill-rule:nonzero}
   ]]>
  </style>
 </defs>
 <g id="Layer_x0020_1">
  <metadata id="CorelCorpID_0Corel-Layer"/>
  <rect class="fil0" width="2005" height="536"/>
  <g id="_838573024">
   <path class="fil1" d="M336 530c-7,0 -13,-2 -18,-7 -9,-11 -6,-30 8,-42 8,-7 18,-11 26,-11 7,0 13,2 17,7l0 0 1 0 0 1 0 0c0,0 1,1 1,1l0 0 5 -2c12,-4 27,-10 40,-19 5,-4 10,-7 13,-11 5,-5 8,-10 10,-15 1,-1 1,-3 1,-4 -2,1 -4,1 -6,1 -5,1 -9,2 -13,2 -2,0 -4,-1 -5,-1 -11,0 -18,-4 -22,-9 -4,-6 -5,-12 -4,-18 2,-6 6,-11 12,-13 2,-1 4,-1 6,-1 3,0 5,0 8,1 5,2 9,5 15,10 5,5 9,10 10,16 1,3 2,7 1,10 8,-2 14,-5 19,-8 8,-6 11,-14 12,-22 0,-9 -3,-18 -8,-28 -9,-17 -25,-34 -40,-46 0,2 0,4 -2,6l-136 121c1,-1 2,-2 3,-4l34 -42c1,-1 2,-3 2,-4l83 -74c3,-3 4,-8 1,-11l-208 -232 1 -1c1,-1 3,-2 5,-2 2,0 4,1 5,3l10 10 12 14 167 187 12 14 0 0 10 10c0,1 1,2 1,4l1 -1c15,12 31,30 40,47 5,10 8,20 8,29 0,9 -4,17 -12,23 -5,4 -12,7 -20,9 0,1 -1,3 -1,5 -2,5 -6,10 -10,15 -5,4 -10,8 -15,12 -13,8 -28,15 -40,19l-4 1c6,11 2,28 -11,40 -7,7 -17,10 -25,10zm72 -140c-2,0 -3,1 -5,1 -6,2 -10,7 -11,12 -2,6 -1,12 4,17 3,4 10,8 20,9 1,0 3,0 5,0 3,0 8,0 13,-1 2,-1 4,-1 7,-2 0,-3 0,-6 -1,-10 -2,-5 -5,-10 -11,-15 -4,-5 -9,-8 -13,-9 -3,-1 -5,-2 -8,-2z"/>
   <path class="fil2" d="M199 79l211 235c3,3 2,8 -1,11l-152 136c-3,3 -8,3 -11,0l-210 -236c-3,-3 -3,-8 0,-10l153 -137c3,-3 8,-3 10,1z"/>
   <path class="fil3" d="M209 89l12 14 -8 7c0,0 -1,0 -2,0l-10 -11c-1,-1 0,-2 0,-3l8 -7z"/>
   <path class="fil3" d="M388 290l12 13 -7 7c-1,1 -2,1 -3,0l-10 -11c0,0 0,-2 0,-2l8 -7z"/>
   <path class="fil4" d="M226 14l251 280c6,7 5,12 -2,13l-58 10 -220 -246 15 -51c3,-11 8,-14 14,-6z"/>
   <polygon class="fil5" points="458,296 415,304 210,74 222,32 "/>
   <path class="fil2" d="M224 13l254 284c1,1 0,2 0,3 -1,0 -2,0 -2,-1l-254 -284c-1,-1 -1,-2 0,-2 0,-1 1,-1 2,0z"/>
   <path class="fil2" d="M218 85l9 10c0,0 0,1 -1,2l-11 10c-1,1 -2,1 -2,0l-9 -10c-1,0 0,-1 0,-2l12 -10c0,-1 1,-1 2,0z"/>
   <path class="fil2" d="M397 285l9 10c0,1 0,2 0,2l-12 11c-1,0 -1,0 -2,0l-9 -10c0,-1 0,-2 0,-2l12 -11c1,0 1,0 2,0z"/>
   <path class="fil4" d="M372 315l6 8c1,1 1,2 0,3l-5 5c-1,1 -3,1 -3,0l-7 -8c-1,-1 -1,-2 0,-3l6 -5c1,-1 2,-1 3,0z"/>
   <path class="fil4" d="M361 325l6 7c1,1 1,3 0,4l-7 7c-2,1 -3,0 -4,-1l-6 -7c-1,-1 -1,-2 0,-3l8 -7c1,-1 2,-1 3,0z"/>
   <path class="fil4" d="M348 337l6 7c1,1 1,3 0,4l-8 7c-1,1 -3,1 -4,-1l-6 -6c-1,-1 -1,-3 0,-4l8 -7c1,-1 3,-1 4,0z"/>
   <path class="fil4" d="M334 349l6 7c1,1 1,3 0,4l-7 7c-2,1 -3,1 -4,0l-6 -7c-1,-1 -1,-3 0,-4l8 -7c1,-1 2,-1 3,0z"/>
   <path class="fil4" d="M321 361l6 7c1,1 1,3 0,4l-8 7c-1,1 -3,1 -4,0l-6 -7c-1,-1 -1,-3 0,-4l8 -7c1,-1 3,-1 4,0z"/>
   <path class="fil4" d="M307 373l6 7c1,1 1,3 0,4l-7 7c-1,1 -3,1 -4,0l-6 -7c-1,-1 -1,-3 0,-4l8 -7c1,-1 2,-1 3,0z"/>
   <path class="fil4" d="M360 302l6 7c1,1 1,3 0,3l-5 5c-1,1 -3,1 -3,0l-7 -7c-1,-1 -1,-3 0,-3l6 -5c1,-1 2,-1 3,0z"/>
   <path class="fil4" d="M338 299l17 20c1,1 1,2 0,3l-7 7c-2,1 -3,1 -4,0l-17 -19c-1,-1 -1,-3 0,-4l7 -7c1,-1 3,-1 4,0z"/>
   <path class="fil4" d="M333 320l9 11c1,1 1,2 0,4l-8 6c-1,1 -3,1 -4,0l-9 -10c-1,-2 -1,-3 0,-4l8 -7c1,-1 3,-1 4,0z"/>
   <path class="fil4" d="M310 322l18 21c1,1 1,3 0,4l-7 6c-1,1 -3,1 -4,0l-19 -21c-1,-1 -1,-2 1,-3l7 -7c1,-1 3,-1 4,0z"/>
   <path class="fil4" d="M309 348l6 7c1,1 1,3 0,4l-8 6c-1,1 -3,1 -4,0l-6 -7c-1,-1 -1,-2 0,-3l8 -7c1,-1 3,-1 4,0z"/>
   <path class="fil4" d="M295 360l6 7c1,1 1,3 0,4l-7 6c-1,1 -3,1 -4,0l-6 -7c-1,-1 -1,-2 0,-3l8 -7c1,-1 2,-1 3,0z"/>
   <path class="fil4" d="M349 289l5 7c1,1 1,2 0,3l-5 5c-1,1 -3,1 -3,0l-6 -7c-1,-1 -1,-2 0,-3l6 -5c0,-1 2,-1 3,0z"/>
   <path class="fil4" d="M337 277l6 6c1,1 1,3 0,3l-6 5c-1,1 -2,1 -3,0l-6 -6c0,-1 0,-3 1,-3l5 -5c1,-1 2,-1 3,0z"/>
   <path class="fil4" d="M326 264l6 7c1,1 1,2 0,3l-6 5c-1,0 -2,0 -3,0l-6 -7c-1,-1 -1,-2 0,-3l6 -5c1,-1 2,-1 3,0z"/>
   <path class="fil4" d="M315 251l6 7c0,1 0,2 -1,3l-5 5c-1,1 -2,1 -3,0l-6 -7c-1,-1 -1,-2 0,-3l6 -5c1,0 2,0 3,0z"/>
   <path class="fil4" d="M303 239l6 6c1,1 1,3 0,3l-5 5c-1,1 -3,1 -3,0l-6 -6c-1,-1 -1,-2 0,-3l5 -5c1,-1 3,-1 3,0z"/>
   <path class="fil4" d="M292 226l6 7c1,1 1,2 0,3l-6 5c-1,1 -2,1 -3,0l-6 -7c0,-1 0,-2 1,-3l5 -5c1,-1 2,-1 3,0z"/>
   <path class="fil4" d="M281 214l6 6c1,1 0,2 0,3l-6 5c-1,1 -2,1 -3,0l-6 -7c-1,0 -1,-2 0,-2l6 -6c1,0 2,0 3,1z"/>
   <path class="fil4" d="M270 201l5 7c1,0 1,2 0,3l-5 5c-1,0 -3,0 -3,-1l-6 -6c-1,-1 -1,-2 0,-3l6 -5c0,-1 2,-1 3,0z"/>
   <path class="fil4" d="M258 188l6 7c1,1 1,2 0,3l-6 5c0,1 -2,1 -3,0l-5 -7c-1,-1 -1,-2 0,-3l5 -5c1,-1 3,0 3,0z"/>
   <path class="fil4" d="M247 176l6 6c1,1 1,3 0,3l-6 5c-1,1 -2,1 -3,0l-6 -6c-1,-1 0,-3 0,-3l6 -5c1,-1 2,-1 3,0z"/>
   <path class="fil4" d="M236 163l6 7c0,1 0,2 -1,3l-5 5c-1,1 -2,0 -3,0l-6 -7c-1,-1 -1,-2 0,-3l6 -5c1,-1 2,-1 3,0z"/>
   <path class="fil4" d="M225 151l5 6c1,1 1,2 0,3l-5 5c-1,1 -3,1 -3,0l-6 -7c-1,0 -1,-2 0,-3l6 -5c0,0 2,0 3,1z"/>
   <path class="fil4" d="M213 138l6 6c1,1 1,3 0,3l-6 6c-1,0 -2,0 -3,-1l-6 -6c0,-1 0,-2 1,-3l5 -5c1,-1 2,-1 3,0z"/>
   <path class="fil4" d="M202 125l6 7c1,1 1,2 0,3l-6 5c-1,1 -2,1 -3,0l-6 -7c-1,-1 -1,-2 0,-3l6 -5c1,-1 2,-1 3,0z"/>
   <path class="fil4" d="M189 111l7 8c1,1 1,2 0,3l-6 5c-1,1 -2,0 -3,0l-7 -8c0,-1 0,-2 1,-3l5 -5c1,-1 3,-1 3,0z"/>
   <path class="fil4" d="M326 286l6 7c1,1 1,2 0,3l-8 7c-1,1 -2,1 -3,0l-6 -7c-1,-1 -1,-2 0,-3l7 -7c1,-1 3,-1 4,0z"/>
   <path class="fil4" d="M314 272l6 7c1,1 1,3 0,4l-8 6c-1,1 -3,1 -4,0l-6 -7c-1,-1 -1,-2 1,-3l7 -7c1,-1 3,-1 4,0z"/>
   <path class="fil4" d="M302 258l6 7c1,1 0,3 -1,4l-7 7c-1,1 -3,1 -4,0l-6 -7c-1,-1 -1,-3 0,-4l8 -7c1,-1 3,-1 4,0z"/>
   <path class="fil4" d="M289 245l6 7c1,1 1,2 0,3l-8 7c-1,1 -2,1 -3,0l-6 -7c-1,-1 -1,-3 0,-4l8 -6c1,-1 2,-1 3,0z"/>
   <path class="fil4" d="M277 231l6 7c1,1 1,3 0,3l-8 7c-1,1 -2,1 -3,0l-6 -7c-1,-1 -1,-2 0,-3l8 -7c1,-1 2,-1 3,0z"/>
   <path class="fil4" d="M265 217l6 7c1,1 1,3 0,4l-8 7c-1,1 -3,1 -4,-1l-6 -6c-1,-1 0,-3 1,-4l7 -7c1,-1 3,-1 4,0z"/>
   <path class="fil4" d="M253 204l6 6c1,2 1,3 -1,4l-7 7c-1,1 -3,1 -4,0l-6 -7c-1,-1 -1,-3 0,-4l8 -7c1,0 3,0 4,1z"/>
   <path class="fil4" d="M240 190l6 7c1,1 1,2 0,3l-7 7c-2,1 -3,1 -4,0l-6 -7c-1,-1 -1,-2 0,-3l8 -7c1,-1 2,-1 3,0z"/>
   <path class="fil4" d="M228 176l6 7c1,1 1,3 0,4l-8 7c-1,1 -2,0 -3,-1l-6 -6c-1,-1 -1,-3 0,-4l8 -7c1,-1 2,-1 3,0z"/>
   <path class="fil4" d="M216 163l6 6c1,1 1,3 0,4l-8 7c-1,1 -3,1 -4,0l-6 -7c0,-1 0,-3 1,-4l7 -7c1,-1 3,0 4,1z"/>
   <path class="fil4" d="M204 149l6 7c1,1 1,2 0,3l-8 7c-1,1 -3,1 -4,0l-6 -7c-1,-1 -1,-2 0,-3l8 -7c1,-1 3,-1 4,0z"/>
   <path class="fil4" d="M191 135l7 7c0,1 0,3 -1,4l-7 7c-1,0 -3,0 -4,-1l-6 -6c-1,-2 -1,-3 0,-4l8 -7c1,-1 3,-1 3,0z"/>
   <path class="fil4" d="M179 121l6 7c1,1 1,3 0,4l-8 6c-1,1 -3,1 -3,0l-7 -7c-1,-1 -1,-2 1,-3l7 -7c1,-1 3,-1 4,0z"/>
   <path class="fil4" d="M165 133l13 15c1,1 1,2 0,3l-7 7c-2,1 -3,1 -4,0l-13 -14c-1,-2 -1,-3 0,-4l8 -7c1,-1 2,-1 3,0z"/>
   <path class="fil4" d="M152 145l15 17c1,1 1,3 0,4l-8 7c-1,1 -2,1 -3,0l-16 -17c-1,-1 0,-3 1,-4l7 -7c1,-1 3,-1 4,0z"/>
   <path class="fil4" d="M139 157l21 25c1,1 1,3 0,4l-7 6c-2,1 -3,1 -4,0l-22 -24c-1,-1 -1,-3 0,-4l8 -7c1,-1 3,-1 4,0z"/>
   <path class="fil4" d="M125 169l9 11c1,1 1,2 0,3l-8 7c-1,1 -2,1 -3,0l-9 -10c-1,-1 -1,-3 0,-4l7 -7c1,-1 3,-1 4,0z"/>
   <path class="fil4" d="M183 153l7 8c1,1 1,2 0,3l-8 7c-1,1 -3,1 -4,0l-6 -7c-1,-2 -1,-3 0,-4l8 -7c1,-1 2,-1 3,0z"/>
   <path class="fil4" d="M196 167l6 8c1,1 1,2 0,3l-7 7c-1,1 -3,1 -4,0l-7 -7c-1,-2 -1,-3 1,-4l7 -7c1,-1 3,-1 4,0z"/>
   <path class="fil4" d="M208 181l7 7c1,2 1,3 0,4l-8 7c-1,1 -3,1 -4,0l-6 -8c-1,-1 -1,-2 0,-3l7 -7c2,-1 3,-1 4,0z"/>
   <path class="fil4" d="M221 195l6 7c1,2 1,3 0,4l-7 7c-2,1 -3,1 -4,0l-7 -8c-1,-1 -1,-2 0,-3l8 -7c1,-1 3,-1 4,0z"/>
   <path class="fil4" d="M233 209l7 7c1,1 1,3 -1,4l-7 7c-1,1 -3,1 -4,0l-6 -8c-1,-1 -1,-2 0,-3l7 -7c1,-1 3,-1 4,0z"/>
   <path class="fil4" d="M246 223l6 7c1,1 1,3 0,4l-8 7c-1,1 -2,1 -3,0l-7 -8c-1,-1 -1,-2 0,-3l8 -7c1,-1 3,-1 4,0z"/>
   <path class="fil4" d="M258 237l7 7c1,1 1,3 -1,4l-7 7c-1,1 -3,1 -4,0l-6 -8c-1,-1 -1,-3 0,-4l7 -6c1,-1 3,-1 4,0z"/>
   <path class="fil4" d="M271 251l6 7c1,1 1,3 0,4l-8 7c-1,1 -2,1 -3,0l-7 -8c-1,-1 -1,-3 0,-4l8 -6c1,-1 3,-1 4,0z"/>
   <path class="fil4" d="M283 265l7 7c1,1 0,3 -1,4l-7 7c-1,1 -3,1 -4,-1l-6 -7c-1,-1 -1,-3 0,-4l7 -6c1,-1 3,-1 4,0z"/>
   <path class="fil4" d="M296 279l6 7c1,1 1,3 0,4l-8 7c-1,1 -2,1 -3,-1l-7 -7c-1,-1 -1,-3 0,-4l8 -6c1,-1 3,-1 4,0z"/>
   <path class="fil4" d="M308 293l6 7c1,1 1,3 0,4l-7 7c-1,1 -3,0 -4,-1l-7 -7c-1,-1 0,-3 1,-4l7 -6c1,-1 3,-1 4,0z"/>
   <path class="fil4" d="M320 307l7 7c1,1 1,3 0,4l-8 7c-1,1 -3,0 -4,-1l-6 -7c-1,-1 -1,-3 0,-4l8 -6c1,-1 2,-1 3,0z"/>
   <path class="fil4" d="M173 169l7 8c1,1 1,2 0,3l-8 7c-1,1 -3,1 -4,0l-6 -7c-1,-2 -1,-3 0,-4l8 -7c1,-1 2,-1 3,0z"/>
   <path class="fil4" d="M186 183l6 7c1,2 1,3 0,4l-7 7c-1,1 -3,1 -4,0l-7 -8c-1,-1 -1,-2 1,-3l7 -7c1,-1 3,-1 4,0z"/>
   <path class="fil4" d="M198 197l7 7c1,2 1,3 0,4l-8 7c-1,1 -3,1 -4,0l-6 -8c-1,-1 -1,-2 0,-3l7 -7c2,-1 3,-1 4,0z"/>
   <path class="fil4" d="M211 211l6 7c1,1 1,3 0,4l-7 7c-2,1 -3,1 -4,0l-7 -8c-1,-1 -1,-2 0,-3l8 -7c1,-1 3,-1 4,0z"/>
   <path class="fil4" d="M223 225l7 7c1,1 1,3 -1,4l-7 7c-1,1 -3,1 -4,0l-6 -8c-1,-1 -1,-2 0,-3l7 -7c1,-1 3,-1 4,0z"/>
   <path class="fil4" d="M236 239l6 7c1,1 1,3 0,4l-8 7c-1,1 -2,1 -3,0l-7 -8c-1,-1 -1,-3 0,-4l8 -6c1,-1 3,-1 4,0z"/>
   <path class="fil4" d="M248 253l7 7c1,1 0,3 -1,4l-7 7c-1,1 -3,1 -4,0l-6 -8c-1,-1 -1,-3 0,-4l7 -6c1,-1 3,-1 4,0z"/>
   <path class="fil4" d="M261 267l6 7c1,1 1,3 0,4l-8 7c-1,1 -2,1 -3,-1l-7 -7c-1,-1 -1,-3 0,-4l8 -6c1,-1 3,-1 4,0z"/>
   <path class="fil4" d="M273 281l7 7c1,1 0,3 -1,4l-7 7c-1,1 -3,1 -4,-1l-6 -7c-1,-1 -1,-3 0,-4l7 -6c1,-1 3,-1 4,0z"/>
   <path class="fil4" d="M285 295l7 7c1,1 1,3 0,4l-8 7c-1,1 -3,0 -3,-1l-7 -7c-1,-1 -1,-3 0,-4l8 -6c1,-1 3,-1 3,0z"/>
   <path class="fil4" d="M298 309l6 7c1,1 1,3 0,4l-7 7c-1,1 -3,0 -4,-1l-7 -7c-1,-1 0,-3 1,-4l7 -6c1,-1 3,-1 4,0z"/>
   <path class="fil4" d="M166 189l7 7c1,1 1,3 0,4l-8 6c-1,1 -3,1 -4,0l-6 -7c-1,-1 -1,-3 0,-4l8 -7c1,-1 2,0 3,1z"/>
   <path class="fil4" d="M179 203l6 7c1,1 1,3 0,4l-7 6c-1,1 -3,1 -4,0l-7 -7c-1,-1 -1,-3 1,-4l7 -7c1,-1 3,-1 4,1z"/>
   <path class="fil4" d="M191 217l7 7c1,1 1,3 0,4l-8 6c-1,1 -3,1 -4,0l-6 -7c-1,-1 -1,-3 0,-4l7 -7c2,-1 3,-1 4,1z"/>
   <path class="fil4" d="M204 230l6 8c1,1 1,3 0,4l-7 6c-2,1 -3,1 -4,0l-7 -7c-1,-1 -1,-3 0,-4l8 -7c1,-1 3,-1 4,0z"/>
   <path class="fil4" d="M216 244l7 8c1,1 1,3 0,4l-8 6c-1,1 -3,1 -4,0l-6 -7c-1,-1 -1,-3 0,-4l7 -7c2,-1 3,-1 4,0z"/>
   <path class="fil4" d="M229 258l6 8c1,1 1,2 0,3l-7 7c-2,1 -3,1 -4,0l-7 -7c-1,-1 -1,-3 0,-4l8 -7c1,-1 3,-1 4,0z"/>
   <path class="fil4" d="M241 272l7 8c1,1 1,2 -1,3l-7 7c-1,1 -3,1 -4,0l-6 -7c-1,-1 -1,-3 0,-4l7 -7c1,-1 3,-1 4,0z"/>
   <path class="fil4" d="M254 286l6 8c1,1 1,2 0,3l-8 7c-1,1 -2,1 -3,0l-7 -7c-1,-2 -1,-3 0,-4l8 -7c1,-1 3,-1 4,0z"/>
   <path class="fil4" d="M266 300l7 7c1,2 0,3 -1,4l-7 7c-1,1 -3,1 -4,0l-6 -7c-1,-2 -1,-3 0,-4l7 -7c1,-1 3,-1 4,0z"/>
   <path class="fil4" d="M279 314l6 7c1,2 1,3 0,4l-8 7c-1,1 -2,1 -3,0l-7 -8c-1,-1 -1,-2 0,-3l8 -7c1,-1 3,-1 4,0z"/>
   <path class="fil4" d="M291 328l12 13c1,1 1,3 0,4l-8 7c-1,1 -3,1 -4,0l-11 -14c-1,-1 -1,-2 0,-3l7 -7c1,-1 3,-1 4,0z"/>
   <path class="fil4" d="M140 187l7 7c1,1 1,3 0,4l-8 6c-1,1 -3,1 -4,0l-6 -7c-1,-1 -1,-3 0,-4l7 -7c2,-1 3,-1 4,1z"/>
   <path class="fil4" d="M153 200l6 8c1,1 1,3 0,4l-7 6c-2,1 -3,1 -4,0l-7 -7c-1,-1 -1,-3 0,-4l8 -7c1,-1 3,-1 4,0z"/>
   <path class="fil4" d="M165 214l7 8c1,1 1,3 -1,4l-7 6c-1,1 -3,1 -4,0l-6 -7c-1,-1 -1,-3 0,-4l7 -7c1,-1 3,-1 4,0z"/>
   <path class="fil4" d="M178 228l6 8c1,1 1,2 0,3l-8 7c-1,1 -2,1 -3,0l-7 -7c-1,-1 -1,-3 0,-4l8 -7c1,-1 3,-1 4,0z"/>
   <path class="fil4" d="M190 242l7 8c1,1 0,2 -1,3l-7 7c-1,1 -3,1 -4,0l-6 -7c-1,-2 -1,-3 0,-4l7 -7c1,-1 3,-1 4,0z"/>
   <path class="fil4" d="M203 256l6 8c1,1 1,2 0,3l-8 7c-1,1 -2,1 -3,0l-7 -7c-1,-2 -1,-3 0,-4l8 -7c1,-1 3,-1 4,0z"/>
   <path class="fil4" d="M215 270l7 7c0,2 0,3 -1,4l-7 7c-1,1 -3,1 -4,0l-6 -7c-1,-2 -1,-3 0,-4l7 -7c1,-1 3,-1 4,0z"/>
   <path class="fil4" d="M227 284l7 7c1,2 1,3 0,4l-8 7c-1,1 -3,1 -4,0l-6 -8c-1,-1 -1,-2 0,-3l8 -7c1,-1 2,-1 3,0z"/>
   <path class="fil4" d="M240 298l6 7c1,2 1,3 0,4l-7 7c-1,1 -3,1 -4,0l-7 -8c-1,-1 0,-2 1,-3l7 -7c1,-1 3,-1 4,0z"/>
   <path class="fil4" d="M252 312l7 7c1,1 1,3 0,4l-8 7c-1,1 -3,1 -4,0l-6 -8c-1,-1 -1,-2 0,-3l8 -7c1,-1 2,-1 3,0z"/>
   <path class="fil4" d="M265 326l12 13c1,1 1,3 -1,4l-7 7c-1,1 -3,1 -4,-1l-12 -13c-1,-1 -1,-3 1,-4l7 -6c1,-1 3,-1 4,0z"/>
   <path class="fil4" d="M283 347l6 7c1,1 1,2 0,3l-7 7c-1,1 -3,1 -4,0l-6 -7c-1,-1 -1,-3 0,-4l8 -7c1,-1 2,0 3,1z"/>
   <path class="fil4" d="M165 257l64 72c1,1 1,3 0,4l-35 31c-1,1 -2,1 -3,0l-65 -73c-1,-1 -1,-3 0,-4l35 -31c1,-1 3,-1 4,1z"/>
   <path class="fil4" d="M122 292l32 36c0,0 0,1 0,1l-7 6c0,1 -1,1 -1,0l-32 -36c0,0 0,0 0,-1l7 -6c0,0 1,0 1,0z"/>
   <path class="fil4" d="M157 332l32 36c1,0 1,0 0,0l-7 7c0,0 0,0 -1,0l-32 -36c0,0 0,-1 0,-1l7 -6c1,-1 1,-1 1,0z"/>
   <path class="fil2" d="M402 427c-10,-1 -17,-4 -21,-9 -5,-6 -6,-12 -4,-18 1,-6 6,-12 12,-14 4,-1 8,-1 13,1l0 2c-5,-2 -9,-2 -13,-1 -5,2 -9,7 -11,12 -1,5 0,12 4,17 4,4 10,8 20,9l0 1zm0 30c-12,8 -27,15 -39,19l-8 2 2 -2 5 -2c12,-4 28,-10 40,-19l0 2zm10 -140c15,12 31,30 41,47 5,10 8,20 8,29 -1,8 -4,17 -13,23 -5,3 -11,6 -20,9 0,1 0,3 -1,4 -2,6 -5,11 -10,16 -4,4 -9,8 -15,12l0 -2c5,-4 10,-8 14,-12 4,-4 8,-9 10,-14 0,-1 0,-3 1,-4 -2,0 -4,1 -7,1 -7,1 -12,2 -18,1l0 -1c5,0 11,0 18,-1 3,-1 5,-1 7,-2 0,-3 0,-6 -1,-10 -1,-5 -5,-10 -10,-15 -5,-5 -9,-8 -14,-9l0 -2c5,2 10,5 15,10 6,5 9,10 11,16 1,3 1,6 1,10 8,-2 14,-5 18,-9 8,-5 12,-13 12,-22 0,-8 -3,-18 -8,-27 -9,-17 -25,-35 -40,-47l1 -1z"/>
   <path class="fil6" d="M356 474c10,11 6,30 -8,43 -14,12 -34,14 -43,3 -10,-11 -6,-30 8,-43 14,-12 33,-14 43,-3z"/>
   <path class="fil2" d="M354 475c8,9 5,25 -6,36 -12,10 -28,11 -36,2 -8,-9 -5,-24 7,-35 12,-10 27,-12 35,-3z"/>
   <polygon class="fil7" points="356,474 356,475 343,486 342,486 356,474 "/>
   <path class="fil7" d="M351 476l3 3c0,0 0,1 0,2l-14 12c-1,1 -2,1 -2,0l-3 -3c-1,0 -1,-2 0,-2l14 -12c0,-1 2,-1 2,0z"/>
   <path class="fil3" d="M351 477l1 2c1,0 1,1 0,1l-13 12c0,0 -1,0 -1,0l-2 -2c0,0 0,-1 1,-1l12 -12c1,0 1,0 2,0z"/>
   <path class="fil8" d="M243 242c-1,0 -2,-1 -2,-1l-7 -8c0,0 0,0 0,0 3,2 6,5 9,9z"/>
   <path class="fil8" d="M247 247c-1,0 -1,0 -1,0 0,0 0,0 1,0z"/>
   <path class="fil8" d="M208 230c-1,0 -2,-1 -2,-1l-7 -7c1,-1 2,-1 2,-1 5,0 10,1 15,2l-6 6c-1,0 -2,1 -2,1z"/>
   <path class="fil8" d="M220 244c-1,0 -1,-1 -2,-1l-6 -8c-1,-1 -1,-2 0,-3l7 -7c0,0 0,0 1,0 1,0 3,1 5,2l5 5c1,1 1,3 -1,4l-7 7c-1,0 -1,1 -2,1z"/>
   <path class="fil8" d="M233 257c-1,0 -2,0 -2,0l-7 -8c-1,-1 -1,-3 0,-4l8 -6c0,-1 1,-1 2,-1 0,0 1,0 2,1l6 7c1,1 1,3 0,4l-8 7c0,0 -1,0 -1,0z"/>
   <path class="fil8" d="M245 271c-1,0 -1,0 -2,0l-6 -8c-1,-1 -1,-3 0,-4l7 -6c1,-1 1,-1 2,-1 1,0 2,0 2,1l3 3c1,3 2,6 2,9l-6 6c-1,0 -1,0 -2,0z"/>
   <path class="fil8" d="M253 282l-4 -5c-1,-1 -1,-3 0,-4l5 -4c0,5 0,9 -1,13z"/>
   <path class="fil8" d="M176 221c-1,0 -2,0 -2,-1l-7 -7c-1,-1 -1,-3 1,-4l7 -7c1,0 1,0 2,0 1,0 1,0 2,1l6 7c1,1 1,3 0,4l-7 6c-1,1 -1,1 -2,1z"/>
   <path class="fil8" d="M188 235c0,0 -1,0 -2,-1l-6 -7c-1,-1 -1,-3 0,-4l7 -6 0 6c3,0 6,-1 9,-1l2 2c1,1 1,3 0,4l-8 6c0,1 -1,1 -2,1z"/>
   <path class="fil8" d="M201 249c-1,0 -2,0 -2,-1l-7 -7c-1,-1 -1,-3 0,-4l8 -7c0,0 1,0 2,0 0,0 1,0 2,0l6 8c1,1 1,3 0,4l-7 6c-1,1 -2,1 -2,1z"/>
   <path class="fil8" d="M213 263c0,0 -1,0 -2,-1l-6 -7c-1,-1 -1,-3 0,-4l7 -7c1,0 2,0 2,0 1,0 2,0 2,0l7 8c1,1 1,3 0,4l-8 6c0,1 -1,1 -2,1z"/>
   <path class="fil8" d="M226 277c-1,0 -2,0 -2,-1l-7 -7c-1,-1 -1,-3 0,-4l8 -7c0,0 1,-1 2,-1 0,0 1,1 2,1l6 8c1,1 1,2 0,3l-7 7c-1,1 -2,1 -2,1z"/>
   <path class="fil8" d="M238 291c-1,0 -1,-1 -2,-1l-6 -7c-1,-1 -1,-3 0,-4l7 -7c1,0 1,-1 2,-1 1,0 2,1 2,1l7 8c1,1 1,2 -1,3l-7 7c-1,1 -1,1 -2,1z"/>
   <path class="fil8" d="M246 301l-4 -4c-1,-2 -1,-3 0,-4l8 -7c0,0 1,-1 2,-1 0,0 0,0 1,1 -2,5 -4,10 -7,15z"/>
   <path class="fil8" d="M150 219c-1,0 -2,0 -2,-1l-7 -7c-1,-1 -1,-3 0,-4l8 -7c0,0 1,0 2,0 0,0 1,0 2,0l6 8c1,1 1,3 0,4l-7 6c-1,1 -2,1 -2,1z"/>
   <path class="fil8" d="M162 233c-1,0 -1,0 -2,-1l-6 -7c-1,-1 -1,-3 0,-4l7 -7c1,0 2,0 2,0 1,0 2,0 2,0l7 8c1,1 1,3 -1,4l-7 6c-1,1 -1,1 -2,1z"/>
   <path class="fil8" d="M175 247c-1,0 -2,0 -2,-1l-7 -7c-1,-1 -1,-3 0,-4l8 -7c0,0 1,-1 2,-1 0,0 1,1 2,1l6 8c1,1 1,2 0,3l-8 7c0,1 -1,1 -1,1z"/>
   <path class="fil8" d="M187 261c-1,0 -1,-1 -2,-1l-6 -7c-1,-2 -1,-3 0,-4l7 -7c1,0 1,-1 2,-1 1,0 2,1 2,1l7 8c1,1 0,2 -1,3l-7 7c-1,1 -1,1 -2,1z"/>
   <path class="fil8" d="M200 275c-1,0 -2,-1 -2,-1l-7 -7c-1,-2 -1,-3 0,-4l8 -7c0,0 1,-1 2,-1 0,0 1,1 2,1l6 8c1,1 1,2 0,3l-8 7c0,1 -1,1 -1,1z"/>
   <path class="fil8" d="M212 289c-1,0 -1,-1 -2,-1l-6 -7c-1,-2 -1,-3 0,-4l7 -7c1,0 1,-1 2,-1 1,0 1,1 2,1l7 7c0,2 0,3 -1,4l-7 7c-1,0 -1,1 -2,1z"/>
   <path class="fil8" d="M224 303c0,0 -1,-1 -2,-1l-6 -8c-1,-1 -1,-2 0,-3l8 -7c0,-1 1,-1 1,-1 1,0 2,1 2,1l7 7c1,2 1,3 0,4l-8 7c0,0 -1,1 -2,1z"/>
   <path class="fil8" d="M234 315l-6 -7c-1,-1 0,-2 1,-3l7 -7c1,-1 1,-1 2,-1 1,0 1,1 2,1l5 6c-3,4 -7,8 -11,11z"/>
   <path class="fil8" d="M201 326c-19,0 -38,-10 -47,-29 -4,-10 -6,-21 -4,-31l11 -10c0,0 1,0 2,0 0,0 1,0 2,1l58 65c-7,3 -14,4 -22,4z"/>
   <path class="fil9" d="M265 466c-2,0 -4,0 -5,-2l-3 -3 69 -62c0,1 -1,3 -2,4l-34 42c-1,2 -2,3 -3,4l-17 15c-1,2 -3,2 -5,2z"/>
   <path class="fil10" d="M154 207c26,-12 57,-1 70,25 13,26 2,57 -24,70 -26,12 -58,1 -70,-25 -13,-26 -2,-57 24,-70z"/>
   <path class="fil4" d="M147 199l3 -1c2,-1 4,0 5,2l11 23c1,2 1,4 -1,5l-4 2c-2,1 -4,0 -5,-2l-11 -23c-1,-2 0,-5 2,-6z"/>
   <path class="fil4" d="M159 217c20,-10 45,-1 55,19 10,21 1,46 -19,56 -21,10 -45,1 -55,-20 -10,-20 -2,-45 19,-55z"/>
   <path class="fil10" d="M161 221c18,-9 40,-1 49,17 9,19 1,41 -17,50 -19,9 -41,1 -50,-17 -9,-19 -1,-41 18,-50z"/>
   <path class="fil11" d="M163 226c16,-8 35,-1 42,15 8,15 1,34 -14,42 -16,8 -35,1 -43,-15 -7,-16 -1,-34 15,-42z"/>
   <path class="fil12" d="M167 234c11,-6 25,-1 30,11 6,11 1,25 -10,30 -12,6 -25,1 -31,-11 -5,-11 -1,-25 11,-30z"/>
   <path class="fil13" d="M189 229c6,3 10,7 13,13 7,14 1,31 -13,38 -6,3 -12,3 -18,2 5,1 11,0 16,-3 14,-7 20,-24 13,-38 -3,-5 -6,-9 -11,-12z"/>
   <path class="fil2" d="M222 32c40,44 79,88 118,132 40,44 79,88 118,132 -7,1 -14,3 -21,4 -8,1 -15,3 -22,4 -34,-38 -69,-77 -103,-115 -34,-38 -68,-76 -102,-115 2,-7 4,-14 6,-21 2,-7 4,-14 6,-21z"/>
   <path class="fil14" d="M222 32c40,44 79,88 118,132 40,44 79,88 118,132 0,0 -1,0 -2,0 -39,-43 -78,-87 -117,-131 -39,-44 -78,-87 -117,-131 0,-1 0,-2 0,-2z"/>
   <path class="fil15" d="M284 105c18,20 36,41 54,61 18,20 36,40 54,61 0,0 -1,1 -2,1 -18,-20 -36,-40 -54,-60 -18,-20 -36,-40 -54,-61 1,0 1,-1 2,-2z"/>
   <path class="fil15" d="M219 42c38,43 76,85 115,128 38,43 76,85 114,128 -3,1 -6,1 -9,2 -37,-42 -74,-83 -111,-125 -37,-41 -74,-83 -111,-124 0,-3 1,-6 2,-9z"/>
   <path class="fil14" d="M264 90c23,27 47,53 70,79 24,27 47,53 71,79 0,0 1,0 1,0 -24,-27 -47,-53 -71,-80 -23,-26 -47,-52 -71,-79 0,0 0,1 0,1z"/>
   <path class="fil14" d="M227 74c9,10 18,20 27,30 9,10 18,21 27,31 2,-2 3,-4 4,-5 -9,-11 -19,-21 -28,-32 -9,-10 -18,-20 -28,-31 0,3 -1,5 -2,7z"/>
   <path class="fil14" d="M295 150c9,10 18,20 27,30 9,10 18,21 27,31 2,-1 4,-3 5,-4 -9,-10 -18,-21 -27,-31 -10,-10 -19,-21 -28,-31 -1,2 -3,3 -4,5z"/>
   <path class="fil14" d="M363 226c9,10 18,20 27,30 9,10 18,20 27,31 2,-1 5,-2 7,-2 -9,-10 -19,-21 -28,-31 -9,-11 -18,-21 -28,-31 -2,1 -3,2 -5,3z"/>
   <path class="fil14" d="M211 70c34,39 69,78 104,117 34,39 69,78 104,116 -2,1 -3,1 -4,1 -34,-38 -69,-77 -103,-115 -34,-38 -68,-76 -102,-115 0,-1 0,-2 1,-4z"/>
   <path class="fil14" d="M226 76c9,10 18,20 27,30 9,10 18,20 27,30 0,0 1,0 1,-1 -9,-10 -18,-20 -27,-30 -9,-10 -18,-20 -27,-30 0,0 -1,1 -1,1z"/>
   <path class="fil14" d="M226 78c8,10 17,20 26,30 9,10 18,20 27,30 0,0 0,-1 1,-1 -9,-10 -18,-20 -27,-30 -9,-10 -18,-20 -27,-30 0,0 0,1 0,1z"/>
   <path class="fil14" d="M225 80c9,10 17,20 26,30 9,10 18,20 27,30 0,-1 0,-1 0,-1 -8,-10 -17,-20 -26,-30 -9,-10 -18,-20 -27,-30 0,1 0,1 0,1z"/>
   <path class="fil14" d="M224 83c11,12 22,24 33,37 1,0 1,-1 1,-1 -11,-13 -22,-25 -34,-38 0,1 0,1 0,2z"/>
   <path class="fil14" d="M294 152c9,10 18,20 27,30 9,10 18,20 27,30 0,0 0,-1 0,-1 -9,-10 -18,-20 -27,-30 -9,-10 -18,-20 -27,-30 0,0 0,0 0,1z"/>
   <path class="fil14" d="M292 153c9,10 18,20 27,30 9,10 18,20 27,30 0,0 0,-1 1,-1 -9,-10 -18,-20 -27,-30 -9,-10 -18,-20 -27,-30 0,0 0,1 -1,1z"/>
   <path class="fil14" d="M291 155c9,10 18,19 27,29 8,10 17,20 26,30 0,0 1,0 1,-1 -9,-10 -18,-20 -27,-29 -8,-10 -17,-20 -26,-30 0,0 -1,0 -1,1z"/>
   <path class="fil14" d="M290 156c11,13 22,25 33,38 0,-1 1,-1 1,-1 -11,-13 -22,-25 -33,-38 -1,1 -1,1 -1,1z"/>
   <path class="fil14" d="M361 227c9,10 18,20 27,30 9,10 18,20 27,30 0,0 1,0 1,0 -9,-10 -18,-20 -27,-30 -9,-11 -18,-21 -27,-31 0,0 -1,1 -1,1z"/>
   <path class="fil14" d="M359 228c9,10 18,20 27,30 9,10 18,20 27,30 0,0 0,0 1,-1 -9,-10 -18,-20 -27,-30 -9,-10 -18,-20 -27,-30 0,0 0,1 -1,1z"/>
   <path class="fil14" d="M357 229c9,10 18,20 27,30 9,9 18,19 26,29 1,0 1,0 2,0 -9,-10 -18,-20 -27,-30 -9,-10 -18,-20 -27,-30 0,0 0,1 -1,1z"/>
   <path class="fil14" d="M356 230c11,12 22,25 33,37 0,0 1,0 1,0 -11,-13 -22,-25 -33,-38 -1,0 -1,1 -1,1z"/>
  </g>
  <g id="_844248688">
   <path class="fil1" d="M1804 394l-9 -13 164 -118 -162 -225 2 -1 171 238 -166 119zm-106 -304l-8 -10c-3,-5 -2,-12 3,-16l0 0c2,-1 4,-2 6,-2 0,0 0,0 0,0 4,0 7,2 9,5l8 10 -18 13zm1 -22c-1,0 -2,0 -3,1 -2,2 -3,5 -1,7 1,1 3,2 4,2 1,0 2,0 3,-1 3,-1 3,-5 1,-7 -1,-1 -2,-2 -4,-2 0,0 0,0 0,0z"/>
   <polygon class="fil16" points="1622,145 1788,25 1959,263 1793,382 "/>
   <polygon class="fil17" points="1638,154 1792,43 1954,262 1795,373 "/>
   <polygon class="fil2" points="1638,154 1792,43 1949,261 1795,373 "/>
   <polygon class="fil4" points="1685,120 1746,76 1750,83 1689,128 "/>
   <path class="fil17" d="M1683 107l17 -12 -3 -4 18 -13 3 4 17 -12c2,-2 7,-1 9,2l2 4 -61 44 -3 -4c-2,-3 -1,-7 1,-9z"/>
   <path class="fil18" d="M1688 81l-9 -13c-3,-5 -2,-12 3,-15l0 0c2,-2 4,-2 6,-2l0 6c-1,0 -2,0 -3,1 -2,1 -2,4 -1,7 1,1 3,2 4,2l0 14zm-6 25l6 -4 0 25 -8 -12c-2,-2 -1,-6 2,-9zm6 -4l10 -7 -10 -14 0 -14c1,0 2,-1 3,-1 3,-2 3,-5 1,-7 -1,-2 -2,-2 -4,-2l0 -6c4,0 7,1 9,4l19 27 17 -12c3,-2 7,-2 9,1l8 12 -61 45 -1 -1 0 -25z"/>
   <polygon class="fil2" points="1661,164 1795,68 1932,259 1798,355 "/>
   <polygon class="fil14" points="1661,164 1795,68 1802,77 1668,174 "/>
   <polygon class="fil15" points="1707,154 1770,109 1780,123 1718,168 "/>
   <polygon class="fil15" points="1694,210 1828,113 1856,152 1722,249 "/>
   <polygon class="fil14" points="1716,186 1798,127 1794,121 1711,180 "/>
   <polygon class="fil14" points="1758,282 1792,258 1769,227 1735,251 "/>
   <polygon class="fil14" points="1800,252 1834,228 1811,196 1777,221 "/>
   <polygon class="fil14" points="1842,222 1876,197 1853,166 1820,190 "/>
   <polygon class="fil14" points="1786,338 1920,242 1932,259 1798,355 "/>
   <polygon class="fil14" points="1765,293 1799,268 1795,262 1761,287 "/>
   <polygon class="fil14" points="1773,303 1806,279 1802,273 1768,297 "/>
   <polygon class="fil14" points="1780,313 1814,289 1809,283 1776,307 "/>
   <polygon class="fil14" points="1787,323 1809,308 1804,302 1783,317 "/>
   <polygon class="fil14" points="1807,262 1841,238 1837,232 1803,256 "/>
   <polygon class="fil14" points="1815,272 1848,248 1844,242 1811,267 "/>
   <polygon class="fil14" points="1822,283 1856,258 1852,252 1818,277 "/>
   <polygon class="fil14" points="1829,293 1851,277 1846,272 1825,287 "/>
   <polygon class="fil14" points="1850,232 1883,208 1879,202 1845,226 "/>
   <polygon class="fil14" points="1857,242 1891,218 1886,212 1853,236 "/>
   <polygon class="fil14" points="1864,252 1898,228 1894,222 1860,246 "/>
   <polygon class="fil14" points="1872,263 1893,247 1889,241 1867,257 "/>
   <path class="fil1" d="M1727 407c-2,0 -4,0 -6,-1 -6,-3 -8,-10 -5,-16l24 -43c2,-3 5,-6 8,-6l0 0 0 0 7 -12c-10,-7 -17,-17 -20,-28l29 41 -3 5 0 1 0 0c1,3 1,7 -1,10l-23 43c-2,4 -6,6 -10,6z"/>
   <path class="fil19" d="M1764 342l-29 -41c-1,-5 -2,-10 -2,-15l36 50c-1,0 -1,0 -2,0l-3 6z"/>
   <path class="fil20" d="M1786 339c-6,0 -12,-1 -17,-3l-36 -50c0,-6 1,-12 3,-18l7 11c-3,18 6,36 22,45 5,2 9,4 14,5l8 10c-1,0 -1,0 -1,0 0,0 0,0 0,0z"/>
   <path class="fil20" d="M1787 339l-8 -10c2,0 5,0 7,0 0,0 0,0 0,0 6,0 13,-1 18,-4l-18 13 1 1 0 0zm31 -24c2,-2 5,-5 6,-8 3,-5 4,-10 5,-15l0 1 11 -8c0,6 -1,11 -3,17l-19 13zm12 -31c0,-2 -1,-4 -1,-6l9 -7c0,2 1,4 1,6l-9 7zm-87 -5l-7 -11c1,-2 2,-5 3,-8 1,-1 1,-1 1,-2l7 9c-2,4 -3,8 -4,12zm84 -9c-1,-1 -2,-3 -2,-5l8 -5c1,1 1,3 2,4l-8 6zm-6 -11c-1,-1 -3,-2 -4,-4l8 -6c2,2 3,3 4,4l-8 6zm-9 -9c-2,-1 -3,-2 -5,-2 0,-1 0,-1 0,-1l8 -6c2,1 4,2 5,3l-8 6zm-19 -7c-2,-1 -4,-1 -7,-1 0,0 0,0 0,0 -2,0 -4,0 -6,1l-6 -9c4,-1 8,-2 12,-2l7 11z"/>
   <path class="fil21" d="M1747 267l-7 -9c8,-13 20,-21 34,-24l6 9c-13,1 -25,9 -32,22 0,1 -1,1 -1,2z"/>
   <path class="fil21" d="M1807 247c-5,-2 -9,-3 -14,-4l-7 -11c0,0 0,0 0,0 0,0 0,0 0,0 9,0 18,2 26,7 1,0 2,1 3,2l-8 6z"/>
   <path class="fil21" d="M1787 339l-1 -1 18 -13c5,-2 10,-5 14,-10l19 -13c-1,3 -2,6 -4,9 -9,18 -28,28 -46,28z"/>
   <path class="fil21" d="M1817 255c-1,-1 -3,-3 -5,-5l8 -6c2,2 4,4 5,5l-8 6z"/>
   <path class="fil21" d="M1825 265c-2,-2 -3,-4 -4,-6l8 -6c1,2 3,4 4,7l-8 5z"/>
   <path class="fil21" d="M1829 278c-1,-3 -1,-5 -2,-8l8 -6c1,3 2,5 3,7l-9 7z"/>
   <path class="fil21" d="M1829 293l0 -1c1,-2 1,-5 1,-8l9 -7c0,3 1,6 1,8l-11 8z"/>
   <polygon class="fil2" points="1736,372 1723,365 1748,320 1761,327 "/>
   <path class="fil7" d="M1728 396c-3,6 -10,8 -16,5 -5,-3 -7,-10 -4,-16l23 -43c3,-5 10,-8 16,-5 5,4 7,11 4,16l-23 43z"/>
   <path class="fil7" d="M1777 228c-19,0 -37,10 -47,28 -14,26 -4,58 22,72 8,5 17,7 25,7l0 -10c-7,0 -14,-2 -20,-6 -22,-11 -29,-38 -18,-59 8,-14 23,-22 38,-22l0 -10zm26 6c-8,-4 -17,-6 -26,-6l0 10c7,0 14,1 21,5 21,11 29,38 18,59 -8,14 -23,23 -39,23l0 10c19,0 38,-10 47,-28 14,-26 5,-59 -21,-73z"/>
   <path class="fil2" d="M1742 333c4,-2 8,0 10,3 2,4 1,8 -3,10 -4,2 -8,0 -10,-3 -2,-4 0,-8 3,-10z"/>
  </g>
  <g id="_848817056">
   <path class="fil1" d="M974 493c-6,0 -12,-2 -17,-5l-1 0c-3,0 -6,0 -8,0 -4,0 -7,0 -10,0l0 1c-1,0 -2,0 -4,0 -17,0 -35,-4 -54,-11l-1 0 -1 -1c-6,-2 -11,-5 -17,-7 -2,3 -6,5 -10,5 -1,0 -2,0 -3,-1 -7,-1 -11,-8 -9,-15 2,-5 7,-9 12,-9 1,0 3,0 4,1 6,2 10,9 8,15l18 8 0 0c15,6 30,10 44,11 -1,-1 -2,-1 -3,-2 -14,-5 -25,-14 -32,-23l-1 0 -2 -4c-4,-5 -7,-9 -9,-13 -1,1 -2,1 -3,1 -4,0 -8,-2 -10,-5 -4,-6 -3,-14 2,-18 3,-1 5,-2 8,-2 4,0 7,2 10,5 4,6 3,13 -3,17l10 16c8,9 18,18 31,23 8,3 16,4 25,4 1,0 2,0 3,0 -10,-8 -16,-23 -16,-39 0,-23 13,-44 34,-56 10,-6 19,-8 27,-8 15,0 25,8 31,18 5,9 7,19 6,30 2,18 -7,40 -33,56 -2,0 -3,1 -4,2 23,-5 40,-28 52,-73l-3 0 10 -42 3 1 6 -24 3 0 -6 24 3 1 -10 42 -5 -1 2 0c-13,50 -33,75 -61,76 -1,0 -2,0 -3,0 -1,0 -2,0 -3,0 -4,1 -7,2 -10,2zm-3 -4l0 0c-2,-1 -4,-2 -6,-3 -1,0 -2,1 -3,1 3,1 6,2 9,2zm1 -5c0,1 -1,1 -1,1 4,1 8,2 13,3 4,-2 9,-4 14,-7 7,-4 12,-8 17,-13 -4,4 -8,7 -13,10 -8,5 -16,7 -24,7 -2,0 -4,0 -6,-1zm-34 -39c0,17 8,32 19,39 1,0 2,0 3,-1 -8,-5 -14,-13 -17,-22 -2,-5 -4,-10 -5,-16zm81 13c-6,6 -15,13 -26,18 -4,2 -7,4 -11,5 6,-1 12,-3 18,-6 8,-5 14,-11 19,-17zm-26 -60c-5,0 -10,1 -16,3 -28,9 -36,33 -32,52 0,2 1,4 1,6 4,7 9,13 15,17 3,2 7,4 11,5 6,-2 13,-5 20,-8 28,-14 38,-33 36,-49 0,-2 -1,-4 -2,-6 -5,-11 -16,-20 -33,-20zm-1 -5c-7,0 -14,2 -22,5 -19,8 -26,22 -28,32 5,-14 15,-26 33,-33 7,-2 13,-3 19,-3 6,0 11,1 16,3 -5,-2 -11,-4 -18,-4zm0 -3c16,0 28,8 35,18 -1,-3 -2,-5 -3,-7 -6,-11 -16,-16 -28,-16 -7,0 -16,2 -25,7 -3,2 -6,3 -8,5 2,-1 4,-2 6,-3 8,-3 16,-4 23,-4z"/>
   <polygon class="fil16" points="1049,358 1039,400 1030,398 1040,356 "/>
   <polygon class="fil16" points="1052,333 1041,377 1039,376 1049,332 "/>
   <path class="fil2" d="M1033 398c-5,17 -11,35 -20,49 -5,7 -10,13 -17,17 -6,4 -13,7 -21,7 -1,1 -2,1 -3,1 -14,0 -24,-6 -32,-14 -7,-8 -11,-19 -11,-30 0,-9 3,-17 8,-25 5,-8 13,-14 25,-18 6,-2 11,-3 17,-3 11,0 20,4 26,10 6,7 10,16 10,26 0,16 -9,34 -32,47 -9,6 -17,8 -24,8 -11,0 -20,-5 -26,-13 -6,-8 -10,-19 -10,-31 0,-19 10,-40 33,-53 10,-5 18,-8 25,-8 11,0 19,5 25,12 5,8 9,18 9,28 0,19 -9,39 -30,51 -8,4 -15,6 -22,6 -11,0 -20,-5 -26,-13 -7,-8 -10,-19 -10,-30 0,-8 2,-16 6,-23 5,-7 12,-13 22,-17 8,-3 15,-5 22,-5 11,0 20,4 27,10 6,6 10,14 10,23 0,8 -3,16 -9,24 -6,8 -15,16 -28,23 -17,8 -32,11 -44,11 -20,0 -35,-7 -47,-18 -12,-11 -20,-24 -25,-35l-3 1c5,12 13,26 25,37 13,11 29,19 50,19 13,0 28,-4 45,-12 14,-7 24,-15 30,-23 6,-9 9,-18 9,-27 0,-10 -4,-19 -11,-26 -7,-6 -17,-10 -29,-10 -7,0 -15,1 -23,4 -11,4 -19,11 -24,19 -5,8 -7,17 -7,25 0,12 4,24 11,32 7,9 17,15 29,15 8,0 16,-2 24,-7 22,-13 31,-34 31,-54 0,-11 -3,-22 -9,-30 -7,-8 -16,-13 -28,-13 -8,0 -17,2 -27,8 -24,13 -34,35 -34,56 0,12 4,24 10,33 7,9 17,14 29,14 8,0 17,-2 26,-8 23,-14 33,-33 33,-50 0,-11 -3,-21 -10,-28 -7,-7 -17,-12 -29,-12 -6,0 -12,1 -19,3 -12,4 -20,11 -26,20 -6,8 -9,18 -9,27 0,12 5,24 13,33 7,8 19,14 34,14 1,0 2,0 3,0 9,0 17,-3 23,-8 11,-7 18,-18 24,-30 6,-12 11,-25 14,-38l-3 -1z"/>
   <path class="fil2" d="M923 469c-1,0 -2,0 -3,0 -29,0 -58,-11 -83,-24l-1 3c25,14 54,25 84,25 1,0 2,0 3,0l0 -4z"/>
   <path class="fil16" d="M848 450c-2,6 -9,10 -15,8 -7,-2 -10,-9 -8,-15 1,-7 8,-10 15,-8 6,1 10,8 8,15z"/>
   <polygon class="fil16" points="866,458 865,462 843,452 844,448 "/>
   <path class="fil16" d="M867 425c-5,4 -13,3 -17,-2 -4,-6 -3,-14 2,-18 6,-4 14,-3 18,3 4,5 3,13 -3,17z"/>
   <polygon class="fil16" points="878,442 874,444 861,424 865,421 "/>
  </g>
  <g id="_833128768">
   <path class="fil1" d="M1626 498c-2,0 -3,0 -4,-1l-86 -43c-5,-2 -7,-8 -5,-13l55 -109c2,-3 5,-5 9,-5 1,0 3,0 4,1l86 43c5,2 7,8 4,13l-54 109c-2,3 -5,5 -9,5z"/>
   <path class="fil7" d="M1587 316l86 43c5,3 7,9 5,14l-55 108c-2,5 -8,7 -13,5l-86 -43c-5,-3 -7,-9 -4,-13l54 -109c3,-5 9,-7 13,-5z"/>
   <path class="fil22" d="M1586 324l82 41c2,2 3,5 2,7l-6 13c-1,2 -4,3 -7,2l-82 -41c-2,-2 -3,-5 -2,-7l6 -13c1,-2 4,-3 7,-2z"/>
   <path class="fil23" d="M1573 349l12 6c2,1 3,3 2,6l-6 12c-1,2 -4,3 -7,2l-11 -6c-2,-1 -3,-4 -2,-6l6 -12c1,-2 4,-3 6,-2z"/>
   <path class="fil23" d="M1597 361l11 5c3,2 3,4 2,7l-6 12c-1,2 -4,3 -6,2l-11 -6c-3,-1 -4,-4 -2,-6l6 -12c1,-3 4,-3 6,-2z"/>
   <path class="fil23" d="M1621 373l11 5c2,1 3,4 2,7l-6 12c-1,2 -4,3 -6,2l-12 -6c-2,-1 -3,-4 -2,-6l6 -12c1,-3 4,-4 7,-2z"/>
   <path class="fil23" d="M1644 384l12 6c2,1 3,4 2,6l-6 12c-1,3 -4,4 -6,2l-12 -5c-2,-1 -3,-4 -2,-6l6 -12c1,-3 4,-4 6,-3z"/>
   <path class="fil23" d="M1561 372l12 6c2,1 3,4 2,6l-6 12c-1,2 -4,3 -6,2l-12 -6c-2,-1 -3,-4 -2,-6l6 -12c1,-2 4,-3 6,-2z"/>
   <path class="fil23" d="M1585 384l12 6c2,1 3,3 2,6l-6 12c-1,2 -4,3 -6,2l-12 -6c-2,-1 -3,-4 -2,-6l6 -12c1,-2 4,-3 6,-2z"/>
   <path class="fil23" d="M1609 396l12 5c2,2 3,4 2,7l-6 12c-2,2 -4,3 -7,2l-11 -6c-2,-1 -3,-4 -2,-6l6 -12c1,-3 4,-4 6,-2z"/>
   <path class="fil23" d="M1633 408l11 5c3,1 3,4 2,6l-6 12c-1,3 -4,4 -6,3l-11 -6c-3,-1 -4,-4 -2,-6l6 -12c1,-3 3,-4 6,-2z"/>
   <path class="fil23" d="M1550 395l12 6c2,1 3,4 2,6l-6 12c-2,2 -4,3 -7,2l-11 -6c-2,-1 -3,-4 -2,-6l6 -12c1,-2 4,-3 6,-2z"/>
   <path class="fil23" d="M1574 407l11 6c3,1 3,3 2,6l-6 12c-1,2 -4,3 -6,2l-11 -6c-3,-1 -4,-4 -2,-6l6 -12c1,-2 3,-3 6,-2z"/>
   <path class="fil6" d="M1597 419l12 5c2,2 3,4 2,7l-6 12c-1,2 -4,3 -6,2l-12 -6c-2,-1 -3,-4 -2,-6l6 -12c1,-3 4,-3 6,-2z"/>
   <path class="fil6" d="M1621 431l12 5c2,1 3,4 2,7l-6 12c-1,2 -4,3 -6,2l-12 -6c-2,-1 -3,-4 -2,-6l6 -12c1,-3 4,-4 6,-2z"/>
   <path class="fil23" d="M1538 418l12 6c2,1 3,4 2,6l-6 12c-1,2 -4,3 -6,2l-12 -6c-2,-1 -3,-4 -2,-6l6 -12c1,-2 4,-3 6,-2z"/>
   <path class="fil23" d="M1562 430l12 6c2,1 3,4 2,6l-6 12c-1,2 -4,3 -6,2l-12 -6c-2,-1 -3,-4 -2,-6l6 -12c1,-2 4,-3 6,-2z"/>
   <path class="fil23" d="M1586 442l11 6c3,1 4,3 3,6l-6 12c-2,2 -4,3 -7,2l-11 -6c-2,-1 -3,-4 -2,-6l6 -12c1,-2 4,-3 6,-2z"/>
   <path class="fil24" d="M1610 454l11 5c2,2 3,4 2,7l-6 12c-1,2 -4,3 -6,2l-11 -6c-3,-1 -4,-4 -3,-6l6 -12c2,-3 4,-4 7,-2z"/>
   <path class="fil2" d="M1654 377l2 1 0 1 1 0 1 0 0 2 0 0 -2 -1 0 -1 -1 0 -2 -1 -1 -1 0 0 0 -1 2 -3 1 -1 0 -1 2 -3 1 -1 0 0 0 0 0 2 0 -1 -2 4 -1 0 0 1 -1 2 3 -1 1 0 -1 1 -3 2zm4 2l1 1 2 -4 1 0 -1 -1 1 -2 -2 1 -1 0 1 -1 3 -2 -2 -1 0 -1 -1 0 -2 0 0 -2 0 0 3 1 0 1 1 0 2 1 0 1 0 0 1 1 -2 3 -1 1 0 1 -2 3 -1 1 0 0 -1 0 0 -2z"/>
   <path class="fil7" d="M1578 361c-1,0 -2,1 -3,2 -1,0 -2,1 -3,3l0 0 -2 0 1 -1c0,-1 1,-2 2,-3 1,-1 2,-2 3,-2l-4 -2 1 -2 6 3 -1 2z"/>
   <path class="fil7" d="M1597 379c-1,0 -1,-1 -1,-1 -1,0 -2,-1 -2,-1 -1,-1 -1,-2 0,-3 0,0 0,-1 1,-1 0,0 1,0 1,0 0,0 0,-1 0,-1 0,-1 0,-1 0,-2 0,0 0,0 1,-1l0 5 -1 0c0,0 0,1 0,1 -1,0 -1,1 -1,1 1,0 1,1 1,1 0,0 1,0 1,0l0 2zm2 -1c-1,0 -1,1 -1,1 0,0 -1,0 -1,0l0 -2 0 0c1,0 1,0 1,-1 0,0 0,-1 0,-1 0,0 0,0 -1,-1 0,0 0,0 0,0l0 -5c0,0 0,0 1,0 0,0 0,0 1,0l0 2 -1 0c0,0 0,0 0,0 0,1 -1,1 0,1 0,1 0,1 0,1 0,0 0,0 1,0l0 5zm2 -5c0,1 0,1 0,1 -1,0 -1,0 -2,0 1,1 1,1 1,2 0,0 0,1 0,1 -1,1 -1,1 -1,1l0 -5 0 0c0,0 1,0 1,-1 0,0 0,0 0,-1 0,0 0,0 -1,0 0,0 0,0 0,0l0 -2c0,0 0,0 1,0 1,1 1,1 2,2 0,1 0,1 -1,2z"/>
   <path class="fil7" d="M1622 387c0,0 0,0 -1,0 0,0 0,0 -1,0 0,0 -1,-1 -1,-2 0,0 0,-1 0,-2 1,-1 1,-2 2,-2 0,0 1,0 1,0l0 2 0 0c-1,0 -1,0 -1,1 0,0 0,1 0,1 0,0 0,1 0,1 1,0 1,0 1,0l0 0 0 1zm-2 2c0,0 0,0 1,0 0,-1 1,-1 1,-2l0 0 0 3 0 0c-1,0 -2,0 -3,0 0,0 -1,0 -1,-1 0,0 -1,0 -1,0l1 -1c0,0 0,0 1,0 0,0 0,0 1,1zm2 -2l0 0 0 0 0 -1c0,0 1,0 1,0l0 -1c0,-1 1,-1 1,-1 -1,-1 -1,-1 -1,-1 0,-1 -1,-1 -1,0l0 -2c1,0 1,0 2,0 0,1 1,1 1,2 0,1 0,2 0,3l-1 2c-1,1 -1,2 -2,2l0 -3z"/>
   <path class="fil7" d="M1644 400l0 0 0 0c0,1 0,1 0,2 0,0 0,0 0,1l0 -3zm0 -3l0 2 -2 1 -1 0 3 -3zm-1 -4c0,0 0,-1 1,-1 0,0 0,0 0,0l0 1 0 0c0,0 0,0 0,1l0 0c-1,0 -1,1 -1,1 1,0 1,0 1,0l0 0 0 1c0,0 0,0 -1,0 0,0 -1,0 -1,-1 0,0 0,-1 0,-1l1 -1zm3 6l0 1 0 0c0,0 0,0 -1,0l0 1c0,0 0,0 0,1 0,0 0,0 1,0 0,0 0,0 0,0l0 1c0,0 -1,0 -1,0 0,0 0,0 -1,0l0 -3c1,-1 1,-1 1,-1 1,0 1,0 1,0zm0 -3l-2 1 0 2 2 -1 0 -2zm-2 -4c1,0 1,0 1,0 1,0 1,1 1,1l0 2c0,1 0,1 -1,1 0,0 0,0 -1,0l0 -1 1 0c0,0 0,0 0,0l0 -1c0,0 0,0 0,0 0,-1 0,-1 0,-1l-1 0 0 -1zm2 6l3 -2 0 -1 -3 1 0 2zm0 5l0 -1 0 0c0,0 1,0 1,0l0 -1c0,0 0,0 0,0 0,-1 0,-1 0,-1l-1 0 0 -1c0,0 1,0 1,0 1,0 1,1 1,1 0,1 0,1 0,2l0 0c0,1 -1,1 -1,1 0,0 -1,0 -1,0zm0 -10c0,0 0,0 1,0 0,1 0,1 -1,2l0 0 0 0 0 -2z"/>
   <path class="fil7" d="M1562 390l-1 -1 1 -1 -4 -2 0 -1 4 -2 0 1 -2 1 2 1 0 4zm2 -3l1 1 -1 1 -1 -1 -1 2 0 0 0 -4 0 0 2 -3 0 0 -1 0 -1 1 0 -1 3 -2 2 1 -3 5z"/>
   <path class="fil7" d="M1583 396l3 -5 5 3 -1 1 -3 -1 -1 1c0,0 0,0 0,0 1,0 1,1 1,1 1,0 2,1 2,1 0,1 0,2 -1,3 0,1 -1,1 -1,2 -1,0 -2,0 -3,-1 -1,0 -1,-1 -2,-1 0,-1 0,-2 0,-3l0 0 2 1c0,1 0,1 0,1 0,1 0,1 1,1 0,0 0,0 1,0 0,0 0,-1 1,-1 0,-1 0,-1 0,-1 0,-1 0,-1 -1,-1 0,0 0,0 -1,0 0,0 0,0 0,0l-2 -1z"/>
   <path class="fil7" d="M1609 407l0 0 0 0 0 0 0 1 0 0c0,0 0,0 0,1l-1 0c0,1 0,1 0,2 0,0 0,1 1,1 0,0 0,0 0,0l0 2c0,0 -1,-1 -1,-1 -1,0 -2,-1 -2,-2 0,-1 0,-2 1,-3l0 -1c1,-1 2,-2 2,-2l0 2zm0 0c1,0 1,0 1,0 1,0 1,0 1,1 1,0 2,1 2,1 0,1 0,2 -1,3 0,1 -1,1 -2,1 0,1 0,1 -1,1l0 -2 1 0c0,0 0,-1 1,-1 0,-1 0,-1 0,-1 0,-1 0,-1 -1,-1 0,0 0,-1 -1,-1l0 -1zm4 -2c0,0 0,0 1,0 0,0 0,1 0,1l-1 1c0,0 0,0 0,-1 0,0 -1,0 -1,0 0,0 -1,0 -2,0 0,0 0,1 -1,1l0 -2 1 -1c1,0 2,0 3,1z"/>
   <polygon class="fil7" points="1634,421 1634,421 1636,419 1638,420 1634,422 1635,426 1633,425 1633,423 1631,424 1629,423 1632,421 1632,417 1634,418 "/>
   <polygon class="fil7" points="1550,413 1548,412 1551,405 1550,404 1550,403 1554,404 "/>
   <path class="fil7" d="M1575 426l-5 -3 0 -1 4 -2c1,0 2,0 2,-1 0,0 0,0 1,0 0,-1 0,-1 0,-1 0,-1 -1,-1 -1,-1 0,0 -1,0 -1,0 0,0 -1,0 -1,1l-2 -1 0 0c1,-1 1,-2 2,-2 1,0 2,0 3,0 1,1 1,1 1,2 1,1 1,2 0,2 0,1 0,1 -1,2 0,0 -1,0 -2,1l-2 1 0 0 3 1 -1 2z"/>
   <path class="fil7" d="M1598 431l1 0c0,0 0,0 1,0 0,0 0,0 0,-1 1,0 1,0 1,-1 -1,0 -1,0 -1,0 0,0 -1,-1 -1,0 0,0 -1,0 -1,0l-1 -1 0 0c0,0 0,-1 1,-1 1,0 2,0 2,0 1,1 2,1 2,2 1,1 1,1 0,2 0,1 0,1 -1,1 0,0 -1,0 -1,0 0,1 0,1 1,2 0,0 0,1 -1,1 0,1 -1,1 -1,2 -1,0 -2,0 -3,-1 -1,0 -1,-1 -2,-2 0,0 0,-1 0,-2l0 0 2 1c0,0 0,1 0,1 0,0 0,1 1,1 0,0 1,0 1,0 0,0 0,0 1,-1 0,0 0,-1 0,-1 0,0 -1,-1 -1,-1l-1 0 1 -1z"/>
   <polygon class="fil7" points="1623,446 1620,444 1621,443 1624,445 "/>
   <path class="fil7" d="M1539 436c0,0 -1,0 -2,-1 -1,0 -1,-1 -2,-2 0,0 0,-1 1,-3l1 -1c0,-2 1,-2 2,-3l0 0 0 2c0,1 0,1 0,1l-1 2c-1,1 -1,2 -1,2 0,1 0,1 1,1 0,0 0,0 1,0l0 0 0 2zm3 -3c-1,1 -2,2 -2,3l-1 0 0 -2c0,-1 1,-1 1,-1l1 -3c0,0 0,-1 0,-1 0,-1 0,-1 0,-1 -1,0 -1,0 -1,0l-1 0 0 -2c1,0 2,0 2,1 1,0 2,1 2,2 0,0 0,1 0,2l-1 2z"/>
   <path class="fil7" d="M1562 442c0,-1 0,-1 1,-1 0,0 1,0 1,0 0,0 1,1 1,1 0,0 0,1 0,1l0 1c-1,0 -1,0 -1,1 -1,0 -1,0 -2,-1 0,0 0,0 0,-1 0,0 0,0 0,-1l0 0z"/>
   <polygon class="fil7" points="1588,455 1590,456 1589,457 1587,456 1586,459 1584,458 1586,455 1583,454 1584,453 1586,454 1587,452 1589,452 "/>
   <path class="fil7" d="M1610 468l0 2 -3 -2 1 -2 2 2zm0 -2l-2 -1 1 -1 1 1 0 1zm0 4l0 -2 3 1 -1 1 -2 0zm3 -2l-3 -2 0 -1 4 2 -1 1z"/>
  </g>
  <g id="_833161440">
   <path class="fil1" d="M988 182c-8,0 -15,-6 -16,-14l-10 -126c-1,-8 6,-16 14,-17l47 -4c0,0 1,0 1,0 8,0 15,6 16,15l11 125c1,9 -6,17 -15,17l-46 4c-1,0 -1,0 -2,0z"/>
   <path class="fil2" d="M962 10l47 -4c9,0 16,6 17,15l11 125c1,9 -6,17 -15,18l-46 4c-9,0 -17,-6 -18,-15l-10 -125c-1,-9 6,-17 14,-18z"/>
   <polygon class="fil5" points="953,28 1020,22 1031,141 964,147 "/>
   <path class="fil3" d="M971 18l30 -2c1,0 2,-1 2,-2l0 0c0,-1 -1,-1 -2,-1l-30 2c-1,1 -1,1 -1,2l0 0c0,1 0,2 1,1z"/>
   <path class="fil3" d="M973 159l51 -4c1,0 2,-1 2,-2 0,-2 -1,-3 -3,-3l-51 5c-1,0 -2,1 -2,2l0 0c0,2 2,2 3,2z"/>
   <path class="fil2" d="M997 146c5,-1 10,3 10,8 0,5 -3,10 -8,10 -5,0 -10,-3 -10,-8 0,-5 3,-10 8,-10z"/>
   <path class="fil3" d="M997 149c4,-1 7,2 7,5 1,4 -2,7 -5,7 -4,1 -7,-2 -7,-6 -1,-3 2,-6 5,-6z"/>
   <polygon class="fil2" points="953,25 1020,19 1031,141 964,147 "/>
   <polygon class="fil14" points="953,25 1020,19 1021,25 954,31 "/>
   <polygon class="fil15" points="972,33 1003,30 1004,39 973,42 "/>
   <polygon class="fil15" points="956,54 1023,48 1025,73 958,79 "/>
   <polygon class="fil14" points="968,50 1010,46 1009,42 968,46 "/>
   <polygon class="fil14" points="964,104 981,102 979,82 962,84 "/>
   <polygon class="fil14" points="985,102 1002,100 1000,80 983,82 "/>
   <polygon class="fil14" points="1006,100 1023,98 1021,78 1004,80 "/>
   <polygon class="fil14" points="963,136 1030,130 1031,141 964,147 "/>
   <polygon class="fil14" points="965,110 981,109 981,105 964,106 "/>
   <polygon class="fil14" points="965,116 982,115 982,111 965,113 "/>
   <polygon class="fil14" points="966,123 983,121 982,118 965,119 "/>
   <polygon class="fil14" points="966,129 977,128 977,125 966,126 "/>
   <polygon class="fil14" points="986,108 1002,107 1002,103 985,104 "/>
   <polygon class="fil14" points="986,115 1003,113 1003,109 986,111 "/>
   <polygon class="fil14" points="987,121 1004,120 1003,116 986,117 "/>
   <polygon class="fil14" points="987,128 998,127 998,123 987,124 "/>
   <polygon class="fil14" points="1007,106 1023,105 1023,101 1006,103 "/>
   <polygon class="fil14" points="1007,113 1024,111 1024,108 1007,109 "/>
   <polygon class="fil14" points="1008,119 1025,118 1024,114 1007,115 "/>
   <polygon class="fil14" points="1008,126 1019,125 1019,121 1008,122 "/>
  </g>
  <path class="fil25" d="M455 156l-11 0c-2,0 -4,-2 -4,-4l0 -6c-2,0 -4,0 -5,-1l-3 5c-1,1 -2,2 -4,2 0,0 -1,0 -2,0l-10 -6c-1,-1 -1,-1 -2,-3 0,-1 0,-2 1,-3l2 -5c-1,-1 -2,-2 -3,-3l-5 3c-1,0 -2,0 -2,0 -2,0 -3,0 -4,-2l-6 -10c-1,-2 0,-4 2,-5l5 -3c-1,-2 -1,-3 -2,-5l-5 0c-3,0 -5,-2 -5,-4l0 -12c0,-2 2,-4 5,-4l5 0c0,-2 1,-3 1,-5l-5 -3c-1,0 -1,-1 -2,-2 0,-2 0,-3 1,-4l5 -10c1,-1 3,-2 4,-2 1,0 2,1 2,1l5 3c1,-2 2,-3 3,-4l-2 -5c-1,-1 -1,-2 -1,-3 1,-1 1,-2 2,-3l10 -5c1,-1 1,-1 2,-1 2,0 3,1 4,2l3 5c1,-1 3,-1 4,-2l0 -5c0,-3 2,-5 5,-5l11 0c2,0 4,2 4,5l0 5c2,0 4,1 5,1l3 -5c1,-1 2,-2 4,-2 1,0 1,1 2,1l10 6c2,1 3,3 1,5l-2 5c1,1 2,2 3,4l5 -3c1,-1 2,-1 2,-1 2,0 3,1 4,2l6 10c1,2 0,5 -2,6l-4 3c0,1 1,3 1,5l6 0c1,0 2,0 3,1 0,1 1,2 1,3l0 11c0,3 -2,5 -4,5l-6 0c0,1 -1,3 -1,5l5 2c2,2 3,4 1,6l-5 10c-1,1 -2,2 -4,2 -1,0 -1,0 -2,0l-5 -3c-1,1 -2,2 -3,4l2 5c2,2 1,4 -1,5l-10 6c-1,0 -1,1 -2,1 -2,0 -3,-1 -4,-2l-2 -5c-2,0 -4,1 -5,1l0 6c0,2 -2,4 -5,4zm-21 -14l1 0c2,1 4,2 6,2l2 0 0 8c0,1 0,1 1,1l11 0c1,0 2,0 2,-1l0 -8 1 0c2,-1 5,-1 7,-2l1 -1 4 7c0,1 0,1 1,1 0,0 0,0 1,0l10 -6c0,0 0,-1 0,-2l-4 -7 1 -1c2,-1 3,-3 5,-5l1 -1 6 4c1,0 1,0 1,0 1,0 1,0 1,0l6 -10c0,-1 0,-2 -1,-2l-6 -4 0 -1c1,-2 1,-5 2,-7l0 -1 8 0c0,0 1,-1 1,-2l0 -11c0,0 0,-1 0,-1 -1,0 -1,-1 -1,-1l-8 0 -1 -1c0,-2 -1,-4 -1,-6l-1 -1 7 -4c1,-1 1,-2 0,-2l-5 -10c-1,-1 -1,-1 -2,-1 0,0 0,0 0,0l-7 4 -1 -1c-2,-1 -3,-3 -5,-5l-1 0 4 -7c0,-1 0,-2 -1,-2l-9 -6c-1,0 -1,0 -1,0 -1,0 -1,0 -1,1l-4 7 -1 -1c-3,0 -5,-1 -7,-1l-1 -1 0 -7c0,-1 -1,-2 -2,-2l-11 0c-1,0 -2,1 -2,2l0 8 -1 0c-2,0 -4,1 -7,2l-1 0 -4 -7c0,0 0,0 -1,0 0,0 0,0 -1,0l-9 6c-1,0 -1,0 -1,0 0,1 0,1 0,2l4 7 -1 0c-2,2 -3,4 -5,5l0 1 -7 -4c0,0 -1,0 -1,0 0,0 -1,0 -1,1l-6 10c0,0 0,0 0,1 0,0 0,1 1,1l7 4 -1 1c-1,2 -1,4 -2,7l0 1 -7 0c-1,0 -2,0 -2,1l0 12c0,0 1,1 2,1l7 0 1 1c0,3 1,5 2,7l0 1 -7 4c0,0 -1,1 0,2l5 10c1,0 1,1 2,1 0,0 0,-1 0,-1l7 -4 1 1c2,2 3,4 5,5l1 1 -4 7c0,0 0,0 0,1 0,0 0,0 1,1l10 5c0,0 0,0 0,0 1,0 1,0 2,0l4 -7zm15 -12c-17,0 -31,-14 -31,-31 0,-17 14,-31 31,-31 17,0 31,14 31,31 0,17 -14,31 -31,31zm0 -59c-15,0 -28,13 -28,28 0,16 13,29 28,29 16,0 28,-13 28,-29 0,-15 -12,-28 -28,-28z"/>
  <g id="_833109808">
   <path class="fil26" d="M565 238c0,9 -7,16 -16,16 -9,0 -16,-7 -16,-16 0,-8 7,-16 16,-16 9,0 16,8 16,16z"/>
   <path class="fil26" d="M675 243c0,6 -5,11 -11,11 -6,0 -11,-5 -11,-11 0,-5 5,-10 11,-10 6,0 11,5 11,10z"/>
   <path class="fil26" d="M632 217c0,16 -13,30 -30,30 -16,0 -29,-14 -29,-30 0,-16 13,-30 29,-30 17,0 30,14 30,30z"/>
   <path class="fil26" d="M664 230c0,13 -10,24 -23,24 -13,0 -24,-11 -24,-24 0,-13 11,-24 24,-24 13,0 23,11 23,24z"/>
   <path class="fil26" d="M608 254c1,-3 2,-7 2,-11 0,-17 -14,-31 -31,-31 -18,0 -32,14 -32,31 0,4 1,8 2,11l59 0z"/>
   <path class="fil26" d="M663 254c2,-3 3,-7 3,-12 0,-15 -13,-27 -28,-27 -15,0 -27,12 -27,27 0,5 1,9 3,12l49 0z"/>
   <path class="fil26" d="M644 254c2,-3 3,-7 3,-12 0,-15 -13,-27 -28,-27 -15,0 -27,12 -27,27 0,5 1,9 3,12l49 0z"/>
   <path class="fil27" d="M651 232c0,5 -4,10 -9,10 -6,0 -10,-5 -10,-10 0,-6 4,-10 10,-10 5,0 9,4 9,10z"/>
   <path class="fil27" d="M719 235c0,4 -3,7 -7,7 -4,0 -7,-3 -7,-7 0,-4 3,-7 7,-7 4,0 7,3 7,7z"/>
   <path class="fil27" d="M692 219c0,10 -8,18 -18,18 -10,0 -18,-8 -18,-18 0,-10 8,-19 18,-19 10,0 18,9 18,19z"/>
   <path class="fil27" d="M712 227c0,8 -6,14 -14,14 -8,0 -15,-6 -15,-14 0,-8 7,-15 15,-15 8,0 14,7 14,15z"/>
   <path class="fil27" d="M678 242c1,-3 1,-5 1,-7 0,-11 -9,-20 -19,-20 -11,0 -20,9 -20,20 0,2 1,4 1,7l37 0z"/>
   <path class="fil27" d="M711 242c1,-3 2,-5 2,-8 0,-9 -7,-17 -17,-17 -9,0 -16,8 -16,17 0,3 0,5 1,8l30 0z"/>
   <path class="fil27" d="M700 242c1,-3 1,-5 1,-8 0,-9 -7,-17 -16,-17 -10,0 -17,8 -17,17 0,3 1,5 2,8l30 0z"/>
  </g>
  <g id="_833113968">
   <path class="fil28" d="M503 398l26 -14 0 6c0,1 0,1 0,1 0,1 0,1 -1,1l-12 6c0,1 -1,1 -2,1 0,0 -1,0 -1,1 0,0 1,0 1,0 1,0 2,0 2,1l12 6c1,0 1,0 1,1 0,0 0,1 0,1l0 6 -26 -14 0 -3z"/>
   <path class="fil28" d="M544 422c0,0 0,1 -1,1 0,1 0,1 -1,1 0,0 -1,1 -1,1 0,0 -1,0 -1,0l-4 0 20 -49c0,-1 0,-2 1,-2 1,-1 2,-1 3,-1l3 0 -19 49z"/>
   <path class="fil28" d="M570 415l0 -6c0,0 0,-1 0,-1 0,-1 1,-1 1,-1l12 -6c1,-1 2,-1 4,-1 -1,-1 -2,-1 -2,-1 -1,0 -1,0 -2,-1l-12 -6c0,0 -1,0 -1,-1 0,0 0,0 0,-1l0 -6 26 14 0 3 -26 14z"/>
  </g>
  <g id="_840247760">
   <path class="fil1" d="M1307 441l-63 -26 -110 -29 59 -229 46 12 5 -10 75 31 13 3 23 6 -1 5 22 9 13 32 -1 1 -81 195zm80 -193l1 -2 1 -1 -2 3z"/>
   <polygon class="fil4" points="1179,141 1317,176 1340,182 1281,411 1120,370 "/>
   <polygon class="fil2" points="1229,142 1361,197 1374,228 1372,234 1293,424 1139,360 "/>
   <polygon class="fil4" points="1258,335 1252,349 1254,350 1259,336 "/>
   <polygon class="fil4" points="1291,349 1280,376 1281,377 1293,350 "/>
   <path class="fil29" d="M1314 287c9,4 13,14 9,23 -3,9 -14,14 -23,10 -9,-4 -13,-14 -9,-23 4,-9 14,-13 23,-10z"/>
   <path class="fil29" d="M1292 314c-1,-3 -2,-6 -2,-9l17 -1 -15 10z"/>
   <path class="fil30" d="M1290 305c-1,-3 0,-5 1,-8 2,-5 6,-9 11,-10l5 17 -17 1z"/>
   <path class="fil31" d="M1302 287c4,-1 8,-1 12,0l-7 17 -5 -17z"/>
   <path class="fil32" d="M1314 287l-7 17 17 -7c-2,-4 -6,-8 -10,-10z"/>
   <polygon class="fil4" points="1190,277 1265,308 1262,315 1187,284 "/>
   <polygon class="fil33" points="1206,237 1220,243 1203,283 1190,277 "/>
   <polygon class="fil34" points="1215,259 1229,264 1218,289 1205,284 "/>
   <polygon class="fil35" points="1227,274 1241,279 1234,296 1220,290 "/>
   <polygon class="fil36" points="1246,272 1259,278 1249,302 1236,296 "/>
   <polygon class="fil23" points="1258,285 1272,291 1265,308 1251,303 "/>
   <polygon class="fil4" points="1284,316 1291,319 1288,326 1281,323 "/>
   <polygon class="fil4" points="1294,320 1314,329 1311,336 1291,328 "/>
   <polygon class="fil4" points="1259,182 1334,213 1332,218 1257,187 "/>
   <polygon class="fil4" points="1228,184 1354,237 1352,242 1226,190 "/>
   <polygon class="fil4" points="1224,194 1350,246 1348,251 1222,199 "/>
   <polygon class="fil4" points="1220,203 1346,255 1344,261 1218,208 "/>
   <polygon class="fil4" points="1216,212 1276,237 1273,242 1214,218 "/>
   <polygon class="fil4" points="1352,219 1374,228 1361,196 "/>
   <polygon class="fil32" points="1181,298 1207,310 1204,318 1177,307 "/>
   <polygon class="fil23" points="1214,312 1241,323 1237,331 1211,320 "/>
   <polygon class="fil37" points="1247,326 1274,337 1270,345 1244,334 "/>
   <polygon class="fil23" points="1280,340 1307,351 1303,359 1277,348 "/>
   <polygon class="fil31" points="1175,312 1202,323 1198,331 1172,320 "/>
   <polygon class="fil30" points="1170,326 1196,337 1193,345 1166,334 "/>
   <polygon class="fil29" points="1164,339 1190,350 1187,359 1161,348 "/>
   <polygon class="fil37" points="1241,340 1268,351 1265,359 1238,348 "/>
   <polygon class="fil23" points="1275,353 1301,364 1298,373 1271,362 "/>
   <polygon class="fil23" points="1269,367 1295,378 1292,386 1266,375 "/>
   <polygon class="fil38" points="1164,254 1148,266 1148,260 1113,260 1113,249 1148,249 1148,243 "/>
  </g>
  <g id="_848835744">
   <path class="fil39" d="M853 105c0,11 -8,20 -19,20l-12 0 0 21 -29 -21 -118 0c-11,0 -19,-9 -19,-20l0 -39c0,-11 8,-20 19,-20l159 0c11,0 19,9 19,20l0 39z"/>
   <path class="fil40" d="M678 79l0 18c0,2 0,3 0,4 -1,1 -1,2 -2,2 -1,2 -2,2 -4,2l0 -2c1,0 2,-1 3,-2 0,-1 1,-2 1,-4l0 -18 2 0zm-2 -2l0 -4 2 0 0 4 -2 0z"/>
   <path id="1" class="fil40" d="M702 79l0 20 -2 0 0 -4c-1,1 -2,2 -3,3 -2,1 -3,1 -5,1 -1,0 -3,0 -4,-1 -2,-1 -3,-2 -4,-3 -1,-1 -1,-1 -1,-2 -1,-2 -1,-3 -1,-4 0,-1 0,-3 1,-4 0,-1 1,-2 1,-2 1,-1 3,-2 4,-3 1,-1 3,-1 4,-1 2,0 3,0 5,1 1,1 2,2 3,3l0 -4 2 0zm-10 3c-2,0 -4,0 -5,2 -2,1 -2,3 -2,5 0,2 0,4 2,5 1,2 3,3 5,3 2,0 4,-1 5,-3 2,-1 3,-3 3,-5 0,-2 -1,-4 -2,-5 -2,-2 -4,-2 -6,-2z"/>
   <polygon id="2" class="fil40" points="713,99 705,79 708,79 714,95 721,79 724,79 716,99 "/>
   <path id="3" class="fil40" d="M746 79l0 20 -3 0 0 -4c0,1 -1,2 -3,3 -1,1 -3,1 -4,1 -2,0 -3,0 -5,-1 -1,-1 -2,-2 -4,-3 0,-1 0,-1 -1,-2 0,-2 0,-3 0,-4 0,-1 0,-3 0,-4 1,-1 1,-2 2,-2 1,-1 2,-2 4,-3 1,-1 2,-1 4,-1 1,0 3,0 4,1 2,1 3,2 3,3l0 -4 3 0zm-10 3c-2,0 -4,0 -6,2 -1,1 -2,3 -2,5 0,2 1,4 2,5 2,2 4,3 6,3 2,0 4,-1 5,-3 2,-1 2,-3 2,-5 0,-2 0,-4 -2,-5 -1,-2 -3,-2 -5,-2z"/>
   <path id="4" class="fil40" d="M749 93l2 0 0 0c0,1 1,2 1,3 1,0 2,1 3,1 1,0 2,-1 2,-1 1,-1 1,-2 1,-3 0,-1 0,-2 -1,-2 0,-1 -1,-1 -2,-1 -2,-1 -2,-1 -2,-1 -1,0 -1,-1 -2,-1 -1,-1 -1,-2 -1,-4 0,-1 0,-2 1,-3 1,-1 3,-2 4,-2 2,0 3,1 4,2 1,1 1,2 1,3l-2 0c0,-1 0,-1 -1,-2 -1,0 -1,0 -2,0 -1,0 -2,0 -2,0 -1,1 -1,1 -1,2 0,1 1,2 1,2 1,1 1,1 3,1 1,1 3,1 3,2 1,1 2,2 2,4 0,2 -1,3 -2,4 -1,1 -2,2 -4,2 -2,0 -3,-1 -4,-2 -2,-1 -2,-2 -2,-4l0 0z"/>
   <path id="5" class="fil40" d="M780 93l3 0c-1,2 -2,3 -4,4 -1,2 -3,2 -5,2 -3,0 -5,-1 -7,-3 -2,-2 -4,-4 -4,-7 0,-3 1,-5 4,-7 2,-2 4,-3 7,-3 2,0 4,1 6,2 1,1 2,2 3,4l-3 0c0,-1 -1,-2 -2,-2 -2,-1 -3,-1 -4,-1 -2,0 -4,0 -6,2 -1,1 -2,3 -2,5 0,2 1,4 2,5 2,2 4,3 6,3 1,0 2,-1 3,-1 2,-1 2,-2 3,-3z"/>
   <path id="6" class="fil40" d="M787 99l0 -20 3 0 0 3c0,-1 1,-2 2,-2 1,-1 2,-1 3,-1l0 3c-1,0 -2,0 -3,1 -1,1 -2,1 -2,2 0,1 0,2 0,3l0 11 -3 0z"/>
   <path id="7" class="fil40" d="M798 99l0 -20 3 0 0 20 -3 0zm0 -22l0 -4 3 0 0 4 -3 0z"/>
   <path id="8" class="fil40" d="M806 79l2 0 0 4c1,-1 2,-2 3,-3 2,-1 3,-1 5,-1 1,0 2,0 4,1 1,0 2,1 3,3 1,0 1,1 2,2 0,1 1,3 1,4 0,3 -1,5 -3,7 -2,2 -5,3 -8,3 -1,0 -3,0 -4,-1 -1,-1 -2,-2 -3,-3l0 10 -2 0 0 -26zm9 18c2,0 4,-1 6,-3 1,-1 2,-3 2,-5 0,-2 -1,-4 -2,-5 -2,-2 -3,-2 -5,-2 -3,0 -4,0 -6,2 -1,1 -2,3 -2,5 0,1 0,2 0,3 1,1 1,1 2,2 1,2 3,3 5,3z"/>
   <polygon id="9" class="fil40" points="832,99 832,82 828,82 828,79 832,79 832,73 834,73 834,79 839,79 839,82 834,82 834,99 "/>
  </g>
  <polygon class="fil41" points="933,280 933,259 917,259 917,280 908,280 908,233 917,233 917,252 933,252 933,233 941,233 941,280 "/>
  <polygon id="1" class="fil41" points="969,241 969,280 960,280 960,241 947,241 947,233 982,233 982,241 "/>
  <polygon id="2" class="fil41" points="1015,280 1014,253 1014,243 1011,250 1006,266 1001,266 996,250 994,243 994,253 993,280 986,280 988,233 998,233 1002,246 1004,254 1006,247 1010,233 1020,233 1023,280 "/>
  <polygon id="3" class="fil41" points="1031,280 1031,233 1040,233 1040,272 1059,272 1059,280 "/>
  <path id="4" class="fil41" d="M1099 265c0,2 0,4 -1,6 -1,2 -3,4 -5,5 -1,2 -4,3 -6,3 -3,1 -5,1 -8,1 -1,0 -2,0 -2,0 -1,0 -2,0 -3,0 -1,0 -2,0 -2,0 -1,0 -2,-1 -3,-1l0 -7c2,0 3,0 5,1 2,0 3,0 5,0 4,0 7,-1 8,-2 2,-1 3,-3 3,-6 0,-2 -1,-4 -2,-5 -2,-2 -5,-2 -9,-2l-9 0 0 -25 27 0 0 8 -19 0 0 10 4 0c2,0 4,0 6,0 2,1 4,2 6,3 2,1 3,2 4,4 1,2 1,4 1,7z"/>
  <g id="_848837344">
   <path class="fil42" d="M677 306c3,-11 11,-19 19,-20 3,0 6,0 9,-1 3,-28 1,-22 22,-1 18,-1 35,-2 53,-2 8,0 16,10 18,24 3,16 6,32 8,48 3,14 -4,23 -15,22 -35,-5 -71,-10 -107,-13 -11,-1 -17,-10 -15,-20 3,-12 6,-25 8,-37z"/>
   <path class="fil40" d="M692 316l0 4 -4 0 0 -4 4 0zm-1 10l-7 0c-1,0 -1,0 -2,-1 0,0 0,0 0,-1 0,0 0,-1 0,-1 1,0 1,-1 2,-1l10 0 0 15c0,1 0,2 -1,3 0,1 -1,2 -2,2 -1,1 -2,1 -3,1l-4 0c-1,0 -1,0 -2,0 0,-1 0,-1 0,-1 0,-1 0,-1 0,-2 1,0 1,0 2,0l4 0c0,0 1,0 2,-1 0,0 1,-1 1,-2l0 -11z"/>
   <path id="1" class="fil40" d="M708 337l0 0c1,0 2,0 3,1 1,0 1,0 1,0 1,0 1,0 2,0 0,-1 1,-1 1,-1 0,0 1,0 1,0 0,1 1,1 1,2 0,0 -1,1 -1,1 -1,1 -2,1 -4,1 0,0 -1,0 -1,0 -1,0 -2,-1 -3,-1 -1,0 -2,1 -4,1 0,0 0,0 -1,0 0,0 0,0 -1,0 0,-1 0,-1 0,-1 0,-1 0,-1 0,-2l2 -2c-1,0 -3,-2 -4,-3 -1,-2 -1,-4 -1,-6 0,-3 1,-5 3,-7 2,-2 4,-3 6,-3 2,0 4,1 5,3 3,2 4,4 4,7 0,3 -1,5 -3,7 -1,2 -3,3 -6,3zm5 -10c0,-2 0,-3 -1,-5 -1,-1 -3,-2 -4,-2 -2,0 -3,1 -4,2 -1,2 -2,3 -2,5 0,2 1,4 2,5 1,1 2,2 4,2 1,0 3,-1 4,-2 1,-1 1,-3 1,-5z"/>
   <path id="2" class="fil40" d="M734 322l0 11c0,0 1,1 1,1 0,0 1,1 1,1 0,0 -1,1 -1,1 0,0 -1,1 -1,1l-4 0 0 -1c-1,0 -1,1 -2,1 -1,0 -2,0 -3,0 -1,0 -2,0 -2,-1 -1,0 -2,-1 -2,-1 0,-1 -1,-2 -1,-2l0 -7 0 0c-1,0 -2,0 -2,-1 0,0 0,0 0,-1 0,0 0,-1 0,-1 0,0 1,-1 2,-1l4 0 0 10c0,1 0,1 0,1 0,1 1,1 2,1 0,0 1,0 2,0 0,-1 1,-1 2,-2l0 -6 -1 0c-1,0 -1,0 -1,-1 -1,0 -1,0 -1,-1 0,0 0,-1 1,-1 0,0 0,-1 1,-1l5 0z"/>
   <path id="3" class="fil40" d="M754 331l-13 0c0,1 1,2 1,2 1,1 2,1 4,1 1,0 3,0 5,-1 0,0 1,0 1,0 1,0 1,0 1,0 1,1 1,1 1,1 0,1 0,1 -1,1 0,1 -1,1 -3,2 -1,0 -3,0 -4,0 -3,0 -5,-1 -6,-2 -2,-2 -3,-3 -3,-5 0,-3 1,-4 3,-6 1,-1 3,-2 5,-2 2,0 3,0 4,1 1,0 2,1 2,1 1,1 2,2 2,3 1,1 1,2 1,3l0 1zm-4 -3c0,-1 -1,-2 -2,-2 0,-1 -1,-1 -2,-1 -2,0 -2,0 -3,1 -1,0 -2,1 -2,2l9 0z"/>
   <path id="4" class="fil40" d="M764 322l0 2c1,-1 3,-1 3,-1 1,-1 2,-1 2,-1 1,0 2,0 3,1 1,1 1,1 1,2 0,0 0,1 0,1 0,0 -1,0 -1,0 -1,0 -1,0 -1,0 -1,-1 -1,-1 -2,-1 0,0 -1,1 -2,1 0,1 -2,1 -3,3l0 4 5 0c0,0 1,1 1,1 1,0 1,1 1,1 0,0 0,1 -1,1 0,0 -1,1 -1,1l-10 0c-1,0 -1,-1 -2,-1 0,0 0,-1 0,-1 0,-1 0,-1 0,-1 1,0 1,-1 2,-1l2 0 0 -7 -1 0c-1,0 -2,0 -2,-1 0,0 0,0 0,-1 0,0 0,-1 0,-1 0,0 1,-1 2,-1l4 0z"/>
   <path id="5" class="fil40" d="M782 336l-5 -10c-1,0 -2,0 -2,-1 0,0 -1,0 -1,-1 0,0 1,-1 1,-1 0,0 1,-1 2,-1l3 0c1,0 1,1 2,1 0,0 0,1 0,1 0,1 0,1 0,1 -1,1 -1,1 -2,1l4 7 4 -7c-1,0 -2,0 -2,-1 0,0 -1,0 -1,-1 0,0 1,-1 1,-1 0,0 1,-1 2,-1l3 0c1,0 1,1 2,1 0,0 0,1 0,1 0,1 0,1 0,1 -1,1 -1,1 -2,1l-7 14c1,0 1,0 2,0 1,1 1,1 1,2 0,0 0,0 0,1 -1,0 -1,0 -2,0l-8 0c-1,0 -1,0 -2,0 0,-1 0,-1 0,-1 0,-1 0,-1 0,-2 1,0 1,0 2,0l3 0 2 -4z"/>
  </g>
  <g id="_848838272">
   <path class="fil43" d="M1457 272c3,11 12,21 20,21 3,0 67,4 84,5 8,1 17,-11 20,-26 3,-18 6,-37 9,-56 3,-15 -4,-27 -15,-25 -37,3 -74,8 -111,13 -11,2 -18,13 -16,25 2,5 4,16 4,16l-31 -8 33 24c0,0 2,5 3,11z"/>
   <path class="fil40" d="M1500 258c-1,1 -2,1 -3,1 -1,0 -3,1 -4,1 -4,0 -7,-2 -9,-4 -2,-2 -3,-5 -3,-9 0,-2 0,-4 1,-6 0,-1 1,-3 2,-4 1,-1 3,-2 4,-2 2,-1 3,-1 5,-1 2,0 3,0 4,0 1,0 2,0 3,1l0 4c-1,-1 -2,-1 -3,-1 -1,0 -2,-1 -4,-1 -1,0 -2,1 -3,1 -1,0 -2,1 -2,2 -1,1 -2,2 -2,3 -1,1 -1,2 -1,4 0,3 1,5 2,7 2,1 4,2 7,2 1,0 2,0 3,-1 1,0 2,0 3,-1l0 4z"/>
   <path id="1" class="fil40" d="M1529 252c0,1 0,2 -1,3 0,0 0,1 -1,2 0,0 -1,1 -2,1 0,0 -1,1 -2,1 -1,0 -1,0 -2,0 -1,1 -2,1 -3,1 -1,0 -3,0 -4,-1 -2,0 -3,0 -5,0l0 -4c2,0 3,0 5,1 1,0 3,0 4,0 2,0 4,0 5,-1 1,0 1,-1 1,-2 0,-1 0,-1 0,-2 0,0 0,0 -1,-1 0,0 -1,0 -2,-1 -1,0 -2,0 -3,-1 -2,0 -3,0 -4,-1 0,0 -1,-1 -2,-1 -1,-1 -1,-2 -2,-2 0,-1 0,-2 0,-3 0,-1 0,-2 0,-3 1,0 1,-1 2,-2 1,-1 2,-1 3,-2 1,0 3,0 5,0 1,0 2,0 3,0 2,0 3,0 4,0l0 4c-1,0 -3,0 -4,-1 -1,0 -2,0 -3,0 -1,0 -2,0 -3,0 0,1 -1,1 -2,1 0,0 0,1 -1,1 0,1 0,1 0,1 0,1 0,1 0,2 1,0 1,0 1,1 1,0 2,0 2,1 1,0 2,0 4,1 1,0 2,1 4,1 1,1 1,1 2,2 1,0 1,1 1,2 1,1 1,1 1,2z"/>
   <path id="2" class="fil40" d="M1557 252c0,1 0,2 -1,3 0,0 0,1 -1,2 0,0 -1,1 -2,1 0,0 -1,1 -2,1 -1,0 -1,0 -2,0 -1,1 -2,1 -3,1 -1,0 -3,0 -4,-1 -2,0 -3,0 -4,0l0 -4c1,0 2,0 4,1 1,0 3,0 4,0 2,0 4,0 5,-1 1,0 1,-1 1,-2 0,-1 0,-1 0,-2 0,0 0,0 -1,-1 0,0 -1,0 -2,-1 -1,0 -2,0 -3,-1 -1,0 -2,0 -3,-1 -1,0 -2,-1 -3,-1 -1,-1 -1,-2 -2,-2 0,-1 0,-2 0,-3 0,-1 0,-2 0,-3 1,0 1,-1 2,-2 1,-1 2,-1 3,-2 2,0 3,0 5,0 1,0 2,0 3,0 2,0 3,0 4,0l0 4c-1,0 -2,0 -4,-1 -1,0 -2,0 -3,0 -1,0 -2,0 -3,0 0,1 -1,1 -1,1 -1,0 -1,1 -1,1 -1,1 -1,1 -1,1 0,1 0,1 1,2 0,0 0,0 1,1 0,0 1,0 2,1 0,0 2,0 3,1 1,0 3,1 4,1 1,1 1,1 2,2 1,0 1,1 1,2 1,1 1,1 1,2z"/>
  </g>
  <g id="_848839104">
   <path class="fil44" d="M1269 109c3,11 11,20 19,20 2,0 5,0 8,0 1,8 1,15 2,23 6,-7 12,-14 19,-22 17,1 33,2 49,4 8,0 16,-10 19,-24 3,-17 5,-34 8,-51 3,-14 -4,-24 -14,-23 -35,3 -69,7 -104,12 -10,2 -16,12 -14,22 3,13 6,26 8,39z"/>
   <path class="fil40" d="M1283 71l4 0 0 5c1,-2 3,-4 5,-5 2,-1 4,-1 7,-1 2,0 4,0 6,1 2,1 4,3 6,5 1,1 1,2 2,4 1,1 1,3 1,5 0,5 -2,8 -5,11 -3,3 -6,5 -11,5 -2,0 -4,-1 -6,-2 -2,-1 -4,-3 -5,-5l0 16 -4 0 0 -39zm15 26c4,0 6,-1 9,-3 2,-3 3,-5 3,-9 0,-3 -1,-6 -3,-8 -2,-2 -5,-3 -8,-3 -4,0 -6,1 -9,3 -2,2 -3,5 -3,8 0,2 0,3 1,5 0,1 1,2 2,3 2,3 5,4 8,4z"/>
   <path id="1" class="fil40" d="M1320 100l0 -40 4 0 0 15c1,-2 2,-3 3,-4 2,-1 4,-1 6,-1 2,0 3,0 5,1 2,1 3,2 4,3 2,2 3,3 3,5 0,2 1,3 1,6l0 15 -4 0 0 -15c0,-2 0,-4 -1,-5 0,-1 0,-2 -1,-3 -1,-1 -2,-2 -3,-2 -2,-1 -3,-1 -5,-1 -1,0 -2,0 -4,1 -1,0 -2,1 -3,2 0,1 -1,2 -1,3 0,2 0,3 0,5l0 15 -4 0z"/>
   <path id="2" class="fil40" d="M1353 71l3 0 0 5c1,-2 3,-4 5,-5 2,-1 5,-1 7,-1 2,0 4,0 6,1 2,1 4,3 6,5 1,1 2,2 2,4 1,1 1,3 1,5 0,5 -1,8 -4,11 -4,3 -7,5 -12,5 -2,0 -4,-1 -6,-2 -2,-1 -4,-3 -5,-5l0 16 -3 0 0 -39zm15 26c3,0 6,-1 8,-3 2,-3 3,-5 3,-9 0,-3 -1,-6 -3,-8 -2,-2 -5,-3 -8,-3 -3,0 -6,1 -8,3 -3,2 -4,5 -4,8 0,2 0,3 1,5 0,1 1,2 2,3 3,3 5,4 9,4z"/>
  </g>
  <g id="_848839936">
   <path class="fil45 str0" d="M689 503l-61 0c-2,0 -3,0 -5,-1 -7,-2 -13,-9 -13,-17 0,-10 8,-18 18,-18 1,0 3,0 4,0 0,-13 11,-24 24,-24 12,0 22,8 24,19 3,-1 5,-1 8,-1 2,0 5,0 7,1 -1,2 -2,5 -2,7 -1,0 -1,0 -2,0 -7,0 -13,5 -13,13 0,5 4,10 9,12 1,0 2,1 3,1l14 0c-2,3 -6,6 -10,7 -2,1 -4,1 -5,1z"/>
   <path class="fil45 str0" d="M734 495l-30 0c3,-4 5,-8 5,-13 0,-9 -6,-17 -14,-20 3,-6 9,-10 16,-10 8,0 15,5 17,13 2,0 3,-1 5,-1 8,0 15,7 15,15 0,7 -4,13 -10,15 -2,0 -3,1 -4,1z"/>
   <path class="fil46" d="M704 495l-14 0c-1,0 -2,-1 -3,-1 -5,-2 -9,-7 -9,-12 0,-8 6,-13 13,-13 1,0 1,0 2,0 0,-2 1,-5 2,-7 8,3 14,11 14,20 0,5 -2,9 -5,13z"/>
  </g>
  <g id="_848840832">
   <polygon class="fil47" points="1389,360 1389,357 1406,350 1406,353 1393,358 1406,364 1406,367 "/>
   <path class="fil47" d="M1420 364l3 1c-1,2 -2,4 -3,5 -1,1 -2,1 -4,1l-3 0c-1,0 -3,-1 -4,-2 -2,-2 -3,-4 -3,-7 0,-2 1,-4 1,-5 1,-2 2,-3 3,-4 2,-1 3,-1 5,-1 2,0 4,1 5,2 1,1 2,2 2,4l-3 0c0,-1 0,-2 -1,-2 -1,-1 -2,-1 -3,-1 -2,0 -3,0 -4,1 -1,1 -1,3 -1,6 0,2 0,4 1,5 1,1 2,2 4,2 1,0 2,0 3,-1 1,-1 1,-2 2,-4z"/>
   <path class="fil47" d="M1424 362c0,-4 1,-6 3,-8 1,-1 3,-2 5,-2 3,0 5,1 7,3 1,1 2,4 2,7 0,2 0,4 -1,5 -1,2 -2,3 -3,3 -1,1 -2,1 -3,1l-3 0c-2,0 -4,-1 -5,-2 -2,-2 -2,-4 -2,-7zm3 0c0,2 0,4 1,5 2,1 3,2 4,2 2,0 3,-1 4,-2 1,-1 2,-3 2,-5 0,-3 -1,-4 -2,-6 -1,-1 -2,-1 -4,-1 -1,0 -2,0 -4,1 -1,2 -1,3 -1,6z"/>
   <path class="fil47" d="M1455 371l0 -2c-1,1 -2,2 -4,2l-3 0c-1,0 -2,0 -2,-1 -2,0 -3,-2 -3,-3 -1,-2 -1,-3 -1,-5 0,-2 0,-4 1,-5 0,-2 1,-3 2,-4 2,-1 3,-1 4,-1 2,0 3,0 3,1 1,0 2,1 3,2l0 -9 3 0 0 25 -3 0zm-10 -9c0,2 0,4 1,5 1,1 3,2 4,2 1,0 3,-1 3,-2 1,-1 2,-3 2,-5 0,-2 -1,-4 -2,-6 -1,-1 -2,-1 -3,-1 -2,0 -3,0 -4,1 -1,2 -1,3 -1,6z"/>
   <path class="fil47" d="M1474 365l3 1c0,1 -1,3 -3,4 -1,1 -2,1 -3,1l-4 0c-2,0 -3,-1 -4,-2 -2,-2 -3,-4 -3,-7 0,-3 1,-6 3,-7 1,-2 3,-3 6,-3 2,0 4,1 6,3 2,1 2,4 2,7 0,0 0,0 0,1l-14 0c0,2 1,3 2,4 1,1 2,2 4,2 1,0 2,0 3,-1 1,-1 1,-2 2,-3zm-10 -5l10 0c0,-2 -1,-3 -1,-4 -1,-1 -3,-1 -4,-1 -2,0 -3,0 -4,1 -1,1 -1,2 -1,4z"/>
   <polygon class="fil47" points="1496,360 1496,357 1479,350 1479,353 1492,358 1479,364 1479,367 "/>
  </g>
  <g id="_839638704">
   <path class="fil48" d="M1341 482c0,8 6,15 15,15l8 0 0 16 23 -16 91 0c8,0 15,-7 15,-15l0 -31c0,-8 -7,-15 -15,-15l-122 0c-9,0 -15,7 -15,15l0 31z"/>
   <path class="fil40" d="M1371 462l0 14 -2 0 0 -2c-1,1 -1,1 -2,2 -1,1 -3,1 -4,1 -1,0 -2,0 -3,-1 -1,-1 -2,-1 -3,-2 -1,-1 -1,-1 -1,-2 -1,-1 -1,-2 -1,-3 0,-1 0,-2 1,-3 0,-1 0,-1 1,-2 1,-1 2,-1 3,-2 1,0 2,-1 3,-1 1,0 2,1 4,1 1,1 1,1 2,2l0 -2 2 0zm-8 1c-1,0 -3,1 -4,2 -1,1 -2,2 -2,4 0,2 1,3 2,4 1,1 3,2 4,2 2,0 3,-1 4,-2 1,-1 2,-2 2,-4 0,-1 -1,-3 -2,-4 -1,-1 -2,-2 -4,-2z"/>
   <path id="1" class="fil40" d="M1374 476l0 -14 2 0 0 2c2,-2 3,-3 5,-3 1,0 2,1 3,1 1,0 1,1 2,2 1,0 1,1 1,2 0,1 0,2 0,3l0 7 -1 0 0 -7c0,-1 -1,-2 -1,-3 0,0 0,0 0,-1 -1,-1 -3,-2 -4,-2 -1,0 -2,0 -2,1 -1,0 -1,1 -2,1 0,1 0,1 0,2 0,0 -1,1 -1,2l0 7 -2 0z"/>
   <path id="2" class="fil40" d="M1406 462l0 12c0,2 0,3 -1,3 0,1 0,2 -1,3 -1,1 -2,1 -3,2 -1,0 -2,0 -3,0 -2,0 -3,0 -4,-1 -2,-1 -3,-3 -3,-4l2 0c1,1 1,2 2,2 1,1 2,1 3,1 1,0 2,0 3,0 1,-1 2,-1 2,-2 0,-1 1,-1 1,-2 0,0 0,-1 0,-2l0 0c-1,1 -1,1 -3,2 -1,1 -2,1 -3,1 -1,0 -2,0 -3,-1 -1,0 -2,-1 -2,-1 -2,-2 -3,-4 -3,-6 0,-1 1,-2 1,-3 0,-1 0,-1 1,-1 1,-2 2,-2 3,-3 1,0 2,-1 3,-1 1,0 2,1 3,1 1,1 2,2 3,3l0 -3 2 0zm-8 1c-2,0 -3,1 -4,2 -1,1 -2,2 -2,4 0,2 1,3 2,4 1,1 2,2 4,2 2,0 3,-1 4,-2 1,0 1,-1 1,-2 1,0 1,-1 1,-2 0,-2 -1,-3 -2,-4 -1,-1 -2,-2 -4,-2z"/>
   <path id="3" class="fil40" d="M1423 462l0 14 -2 0 0 -2c0,1 -1,2 -2,2 -1,1 -2,1 -3,1 -1,0 -2,0 -3,-1 -1,0 -2,-1 -2,-2 -1,0 -1,-1 -1,-2 0,0 -1,-1 -1,-3l0 -7 3 0 0 7c0,1 0,2 0,2 0,1 0,1 0,2 1,0 1,1 2,1 1,1 2,1 2,1 2,0 3,-1 4,-2 1,0 1,-1 1,-2 0,0 0,-1 0,-2l0 -7 2 0z"/>
   <polygon id="4" class="fil40" points="1427,476 1427,457 1429,457 1429,476 "/>
   <path id="5" class="fil40" d="M1448 462l0 14 -2 0 0 -2c-1,1 -1,1 -3,2 -1,1 -2,1 -3,1 -1,0 -2,0 -3,-1 -1,-1 -2,-1 -3,-2 -1,-1 -1,-1 -1,-2 -1,-1 -1,-2 -1,-3 0,-1 0,-2 1,-3 0,-1 0,-1 1,-2 1,-1 2,-1 3,-2 1,0 2,-1 3,-1 1,0 2,1 3,1 1,1 2,1 3,2l0 -2 2 0zm-8 1c-2,0 -3,1 -4,2 -1,1 -2,2 -2,4 0,2 1,3 2,4 1,1 2,2 4,2 2,0 3,-1 4,-2 1,-1 2,-2 2,-4 0,-1 -1,-3 -2,-4 -1,-1 -2,-2 -4,-2z"/>
   <path id="6" class="fil40" d="M1451 476l0 -14 2 0 0 2c1,-1 1,-2 2,-2 1,0 2,-1 3,-1l0 2c-1,0 -2,1 -3,1 -1,1 -1,1 -1,2 -1,1 -1,1 -1,2l0 8 -2 0z"/>
   <path id="7" class="fil40" d="M1462 462l0 13c0,2 0,3 0,3 -1,1 -1,2 -1,2 -1,1 -3,2 -4,2l0 -2c1,0 2,-1 2,-2 1,0 1,-1 1,-3l0 -13 2 0zm-2 -2l0 -3 2 0 0 3 -2 0z"/>
   <path id="8" class="fil40" d="M1464 472l2 0 0 0c0,1 0,2 1,2 1,1 1,1 2,1 1,0 1,0 2,-1 0,0 1,-1 1,-2 0,0 -1,-1 -1,-2 -1,0 -1,0 -2,0 -1,-1 -2,-1 -2,-1 0,0 -1,0 -1,-1 -1,0 -1,-1 -1,-3 0,-1 0,-2 1,-2 1,-1 2,-2 3,-2 1,0 2,1 3,2 1,0 1,1 1,2l-2 0c0,0 0,-1 -1,-1 0,-1 -1,-1 -1,-1 -1,0 -1,0 -2,1 0,0 0,1 0,1 0,1 0,2 1,2 0,0 1,1 1,1 2,0 3,1 3,1 1,1 2,2 2,3 0,1 -1,3 -2,3 -1,1 -2,2 -3,2 -1,0 -3,-1 -3,-2 -1,0 -2,-2 -2,-3l0 0z"/>
  </g>
  <g id="_839639760">
   <path class="fil45 str0" d="M1883 484l-61 0c-2,0 -3,0 -5,-1 -7,-2 -12,-9 -12,-17 0,-10 8,-18 18,-18 1,0 2,0 3,0 1,-13 11,-24 25,-24 11,0 21,8 24,19 2,-1 4,-1 7,-1 2,0 5,0 7,1 -1,2 -1,4 -1,7 -1,0 -2,-1 -3,-1 -7,0 -13,6 -13,13 0,6 4,11 9,13 1,0 2,0 4,0l14 0c-3,4 -6,7 -11,8 -1,1 -3,1 -5,1z"/>
   <path class="fil45 str0" d="M1928 475l-29 0c2,-3 4,-8 4,-12 0,-9 -6,-17 -14,-20 3,-6 9,-11 16,-11 9,0 16,6 17,14 2,0 4,-1 5,-1 9,0 16,7 16,15 0,7 -5,13 -11,15 -1,0 -2,0 -4,0z"/>
   <path class="fil46" d="M1899 475l-14 0c-2,0 -3,0 -4,0 -5,-2 -9,-7 -9,-13 0,-7 6,-13 13,-13 1,0 2,1 3,1 0,-3 0,-5 1,-7 8,3 14,11 14,20 0,4 -2,9 -4,12z"/>
  </g>
  <g id="_839640656">
   <path class="fil26" d="M1116 498c0,9 -7,16 -16,16 -9,0 -16,-7 -16,-16 0,-9 7,-16 16,-16 9,0 16,7 16,16z"/>
   <path class="fil26" d="M1226 503c0,6 -5,11 -11,11 -6,0 -11,-5 -11,-11 0,-6 5,-11 11,-11 6,0 11,5 11,11z"/>
   <path class="fil26" d="M1183 477c0,16 -13,29 -30,29 -16,0 -29,-13 -29,-29 0,-17 13,-30 29,-30 17,0 30,13 30,30z"/>
   <path class="fil26" d="M1215 489c0,14 -10,24 -23,24 -13,0 -24,-10 -24,-24 0,-13 11,-23 24,-23 13,0 23,10 23,23z"/>
   <path class="fil26" d="M1159 514c1,-4 2,-7 2,-11 0,-18 -14,-32 -31,-32 -18,0 -32,14 -32,32 0,4 1,7 2,11l59 0z"/>
   <path class="fil26" d="M1214 514c2,-4 3,-8 3,-12 0,-15 -12,-27 -28,-27 -15,0 -27,12 -27,27 0,4 1,8 3,12l49 0z"/>
   <path class="fil26" d="M1195 514c2,-4 3,-8 3,-12 0,-15 -12,-27 -28,-27 -15,0 -27,12 -27,27 0,4 1,8 3,12l49 0z"/>
   <path class="fil27" d="M1202 491c0,6 -4,10 -9,10 -6,0 -10,-4 -10,-10 0,-5 4,-10 10,-10 5,0 9,5 9,10z"/>
   <path class="fil27" d="M1270 494c0,4 -3,7 -7,7 -4,0 -7,-3 -7,-7 0,-3 3,-6 7,-6 4,0 7,3 7,6z"/>
   <path class="fil27" d="M1243 478c0,10 -8,18 -18,18 -10,0 -18,-8 -18,-18 0,-10 8,-18 18,-18 10,0 18,8 18,18z"/>
   <path class="fil27" d="M1263 486c0,8 -6,15 -14,15 -8,0 -15,-7 -15,-15 0,-8 7,-14 15,-14 8,0 14,6 14,14z"/>
   <path class="fil27" d="M1229 501c1,-2 1,-4 1,-7 0,-10 -9,-19 -19,-19 -11,0 -20,9 -20,19 0,3 1,5 1,7l37 0z"/>
   <path class="fil27" d="M1262 501c1,-2 2,-5 2,-7 0,-9 -7,-17 -17,-17 -9,0 -16,8 -16,17 0,2 0,5 1,7l30 0z"/>
   <path class="fil27" d="M1251 501c1,-2 1,-5 1,-7 0,-9 -7,-17 -16,-17 -10,0 -17,8 -17,17 0,2 1,5 2,7l30 0z"/>
  </g>
 </g>
</svg>
